<svg xmlns="http://www.w3.org/2000/svg" xmlns:xlink="http://www.w3.org/1999/xlink" width="40" zoomAndPan="magnify" viewBox="0 0 30 30.000001" height="40" preserveAspectRatio="xMidYMid meet" version="1.2"><defs><clipPath id="5ac74193d5"><path d="M 11 1.503906 L 19 1.503906 L 19 8 L 11 8 Z M 11 1.503906 "/></clipPath><clipPath id="59351512db"><path d="M 11 21 L 19 21 L 19 27.632812 L 11 27.632812 Z M 11 21 "/></clipPath><clipPath id="e47afd7da8"><path d="M 12 21 L 19 21 L 19 27.632812 L 12 27.632812 Z M 12 21 "/></clipPath></defs><g id="9534c5d99b"><path style=" stroke:none;fill-rule:nonzero;fill:#d10028;fill-opacity:1;" d="M 14.53125 6.824219 L 15.722656 6.824219 L 15.722656 22.304688 L 14.53125 22.304688 Z M 14.53125 6.824219 "/><path style=" stroke:none;fill-rule:nonzero;fill:#d10028;fill-opacity:1;" d="M 22.179688 11.207031 L 19.460938 12.761719 L 16.320312 14.5625 L 15.722656 14.90625 L 15.125 15.246094 L 14.53125 15.589844 L 10.546875 17.871094 L 8.671875 18.945312 L 8.074219 17.921875 L 10.1875 16.710938 L 13.933594 14.5625 L 14.53125 14.222656 L 15.125 13.878906 L 15.722656 13.539062 L 18.734375 11.8125 L 21.582031 10.179688 Z M 22.179688 11.207031 "/><path style=" stroke:none;fill-rule:nonzero;fill:#d10028;fill-opacity:1;" d="M 22.179688 17.921875 L 21.582031 18.945312 L 19.707031 17.871094 L 15.722656 15.589844 L 15.125 15.246094 L 14.53125 14.90625 L 13.933594 14.5625 L 10.792969 12.761719 L 8.074219 11.207031 L 8.671875 10.179688 L 11.515625 11.8125 L 14.53125 13.539062 L 15.125 13.878906 L 15.722656 14.222656 L 16.320312 14.5625 L 20.066406 16.710938 Z M 22.179688 17.921875 "/><g clip-rule="nonzero" clip-path="url(#5ac74193d5)"><path style=" stroke:none;fill-rule:nonzero;fill:#e63950;fill-opacity:1;" d="M 18.398438 4.746094 C 18.398438 5.175781 18.316406 5.589844 18.148438 5.988281 C 17.984375 6.386719 17.746094 6.738281 17.441406 7.042969 C 17.132812 7.347656 16.78125 7.582031 16.378906 7.746094 C 15.976562 7.914062 15.558594 7.996094 15.125 7.996094 C 14.691406 7.996094 14.273438 7.914062 13.875 7.746094 C 13.472656 7.582031 13.117188 7.347656 12.8125 7.042969 C 12.503906 6.738281 12.269531 6.386719 12.101562 5.988281 C 11.9375 5.589844 11.855469 5.175781 11.855469 4.746094 C 11.855469 4.316406 11.9375 3.902344 12.101562 3.503906 C 12.269531 3.105469 12.503906 2.753906 12.8125 2.449219 C 13.117188 2.144531 13.472656 1.910156 13.875 1.746094 C 14.273438 1.582031 14.691406 1.5 15.125 1.5 C 15.558594 1.5 15.976562 1.582031 16.378906 1.746094 C 16.78125 1.910156 17.132812 2.144531 17.441406 2.449219 C 17.746094 2.753906 17.984375 3.105469 18.148438 3.503906 C 18.316406 3.902344 18.398438 4.316406 18.398438 4.746094 Z M 18.398438 4.746094 "/></g><path style=" stroke:none;fill-rule:nonzero;fill:#d10028;fill-opacity:1;" d="M 17.136719 2.183594 C 17.570312 2.734375 17.828125 3.429688 17.828125 4.179688 C 17.828125 5.976562 16.363281 7.429688 14.554688 7.429688 C 13.796875 7.429688 13.101562 7.171875 12.546875 6.742188 C 13.144531 7.503906 14.078125 7.996094 15.125 7.996094 C 16.933594 7.996094 18.398438 6.539062 18.398438 4.746094 C 18.398438 3.707031 17.90625 2.78125 17.136719 2.183594 Z M 17.136719 2.183594 "/><g clip-rule="nonzero" clip-path="url(#59351512db)"><path style=" stroke:none;fill-rule:nonzero;fill:#e63950;fill-opacity:1;" d="M 18.398438 24.378906 C 18.398438 24.808594 18.316406 25.222656 18.148438 25.621094 C 17.984375 26.019531 17.746094 26.371094 17.441406 26.675781 C 17.132812 26.980469 16.78125 27.214844 16.378906 27.378906 C 15.976562 27.542969 15.558594 27.625 15.125 27.625 C 14.691406 27.625 14.273438 27.542969 13.875 27.378906 C 13.472656 27.214844 13.117188 26.980469 12.8125 26.675781 C 12.503906 26.371094 12.269531 26.019531 12.101562 25.621094 C 11.9375 25.222656 11.855469 24.808594 11.855469 24.378906 C 11.855469 23.949219 11.9375 23.535156 12.101562 23.136719 C 12.269531 22.738281 12.503906 22.386719 12.8125 22.082031 C 13.117188 21.777344 13.472656 21.542969 13.875 21.378906 C 14.273438 21.214844 14.691406 21.132812 15.125 21.132812 C 15.558594 21.132812 15.976562 21.214844 16.378906 21.378906 C 16.78125 21.542969 17.132812 21.777344 17.441406 22.082031 C 17.746094 22.386719 17.984375 22.738281 18.148438 23.136719 C 18.316406 23.535156 18.398438 23.949219 18.398438 24.378906 Z M 18.398438 24.378906 "/></g><g clip-rule="nonzero" clip-path="url(#e47afd7da8)"><path style=" stroke:none;fill-rule:nonzero;fill:#d10028;fill-opacity:1;" d="M 17.136719 21.816406 C 17.570312 22.367188 17.828125 23.058594 17.828125 23.8125 C 17.828125 25.605469 16.363281 27.0625 14.554688 27.0625 C 13.796875 27.0625 13.101562 26.804688 12.546875 26.375 C 13.144531 27.136719 14.078125 27.625 15.125 27.625 C 16.933594 27.625 18.398438 26.171875 18.398438 24.378906 C 18.398438 23.335938 17.90625 22.410156 17.136719 21.816406 Z M 17.136719 21.816406 "/></g><path style=" stroke:none;fill-rule:nonzero;fill:#e63950;fill-opacity:1;" d="M 9.332031 17.761719 C 9.5625 18.128906 9.710938 18.523438 9.777344 18.949219 C 9.847656 19.375 9.832031 19.796875 9.730469 20.214844 C 9.628906 20.632812 9.453125 21.019531 9.199219 21.367188 C 8.945312 21.714844 8.632812 22.003906 8.265625 22.230469 C 7.894531 22.453125 7.496094 22.601562 7.066406 22.667969 C 6.640625 22.738281 6.214844 22.722656 5.792969 22.621094 C 5.371094 22.523438 4.984375 22.347656 4.632812 22.09375 C 4.28125 21.84375 3.992188 21.53125 3.765625 21.167969 C 3.535156 20.800781 3.386719 20.40625 3.320312 19.980469 C 3.25 19.554688 3.265625 19.132812 3.367188 18.714844 C 3.46875 18.296875 3.644531 17.910156 3.898438 17.5625 C 4.152344 17.214844 4.464844 16.925781 4.835938 16.699219 C 5.203125 16.476562 5.601562 16.328125 6.03125 16.261719 C 6.457031 16.191406 6.882812 16.207031 7.304688 16.308594 C 7.726562 16.40625 8.113281 16.582031 8.464844 16.835938 C 8.816406 17.085938 9.105469 17.398438 9.332031 17.761719 Z M 9.332031 17.761719 "/><path style=" stroke:none;fill-rule:nonzero;fill:#d10028;fill-opacity:1;" d="M 9.394531 17.847656 C 9.175781 17.472656 8.894531 17.15625 8.570312 16.90625 C 8.660156 17.023438 8.746094 17.148438 8.824219 17.28125 C 9.726562 18.835938 9.191406 20.820312 7.625 21.71875 C 6.4375 22.398438 5 22.253906 3.980469 21.46875 C 4.96875 22.726562 6.765625 23.105469 8.195312 22.285156 C 9.761719 21.386719 10.296875 19.402344 9.394531 17.847656 Z M 9.394531 17.847656 "/><path style=" stroke:none;fill-rule:nonzero;fill:#e63950;fill-opacity:1;" d="M 26.949219 9.328125 C 26.992188 9.753906 26.949219 10.175781 26.824219 10.589844 C 26.699219 11 26.5 11.375 26.222656 11.707031 C 25.949219 12.039062 25.621094 12.308594 25.238281 12.511719 C 24.855469 12.714844 24.449219 12.835938 24.015625 12.878906 C 23.582031 12.921875 23.160156 12.882812 22.746094 12.757812 C 22.328125 12.632812 21.953125 12.433594 21.617188 12.160156 C 21.28125 11.886719 21.011719 11.5625 20.808594 11.183594 C 20.601562 10.800781 20.476562 10.398438 20.433594 9.96875 C 20.394531 9.542969 20.433594 9.121094 20.558594 8.710938 C 20.683594 8.296875 20.886719 7.925781 21.160156 7.589844 C 21.433594 7.257812 21.765625 6.988281 22.144531 6.785156 C 22.527344 6.582031 22.9375 6.460938 23.367188 6.417969 C 23.800781 6.375 24.222656 6.414062 24.636719 6.539062 C 25.054688 6.664062 25.429688 6.863281 25.765625 7.136719 C 26.101562 7.410156 26.371094 7.734375 26.574219 8.113281 C 26.78125 8.496094 26.90625 8.898438 26.949219 9.328125 Z M 26.949219 9.328125 "/><path style=" stroke:none;fill-rule:nonzero;fill:#d10028;fill-opacity:1;" d="M 26.527344 8.03125 C 26.308594 7.65625 26.027344 7.339844 25.703125 7.089844 C 25.792969 7.207031 25.878906 7.332031 25.957031 7.464844 C 26.859375 9.019531 26.324219 11.003906 24.757812 11.902344 C 23.570312 12.582031 22.132812 12.4375 21.113281 11.652344 C 22.101562 12.910156 23.894531 13.289062 25.328125 12.46875 C 26.894531 11.570312 27.429688 9.585938 26.527344 8.03125 Z M 26.527344 8.03125 "/><path style=" stroke:none;fill-rule:nonzero;fill:#e63950;fill-opacity:1;" d="M 26.960938 19.214844 C 26.992188 19.644531 26.941406 20.0625 26.808594 20.472656 C 26.671875 20.882812 26.464844 21.25 26.183594 21.578125 C 25.898438 21.902344 25.566406 22.164062 25.179688 22.359375 C 24.789062 22.554688 24.382812 22.667969 23.949219 22.703125 C 23.515625 22.734375 23.09375 22.683594 22.679688 22.550781 C 22.269531 22.417969 21.898438 22.210938 21.566406 21.929688 C 21.238281 21.648438 20.976562 21.316406 20.777344 20.933594 C 20.582031 20.550781 20.46875 20.144531 20.433594 19.714844 C 20.398438 19.285156 20.449219 18.863281 20.585938 18.457031 C 20.71875 18.046875 20.929688 17.679688 21.210938 17.351562 C 21.492188 17.023438 21.828125 16.761719 22.214844 16.566406 C 22.601562 16.371094 23.011719 16.257812 23.445312 16.226562 C 23.878906 16.191406 24.300781 16.242188 24.710938 16.375 C 25.125 16.511719 25.496094 16.71875 25.824219 16.996094 C 26.15625 17.277344 26.417969 17.609375 26.613281 17.992188 C 26.8125 18.378906 26.925781 18.785156 26.960938 19.214844 Z M 26.960938 19.214844 "/><path style=" stroke:none;fill-rule:nonzero;fill:#d10028;fill-opacity:1;" d="M 25.703125 16.910156 C 26.496094 17.921875 26.640625 19.351562 25.957031 20.527344 C 25.050781 22.082031 23.050781 22.613281 21.484375 21.71875 C 21.351562 21.640625 21.226562 21.554688 21.109375 21.464844 C 21.363281 21.789062 21.679688 22.066406 22.054688 22.285156 C 23.621094 23.179688 25.621094 22.648438 26.527344 21.09375 C 27.351562 19.671875 26.972656 17.890625 25.703125 16.910156 Z M 25.703125 16.910156 "/><path style=" stroke:none;fill-rule:nonzero;fill:#e63950;fill-opacity:1;" d="M 8.210938 6.84375 C 8.585938 7.058594 8.90625 7.339844 9.167969 7.683594 C 9.429688 8.027344 9.617188 8.40625 9.730469 8.824219 C 9.839844 9.238281 9.863281 9.660156 9.804688 10.085938 C 9.746094 10.515625 9.609375 10.914062 9.390625 11.285156 C 9.171875 11.65625 8.890625 11.972656 8.542969 12.234375 C 8.199219 12.496094 7.816406 12.679688 7.394531 12.789062 C 6.976562 12.902344 6.550781 12.925781 6.121094 12.867188 C 5.691406 12.808594 5.289062 12.671875 4.914062 12.457031 C 4.539062 12.238281 4.21875 11.957031 3.957031 11.613281 C 3.695312 11.273438 3.507812 10.890625 3.398438 10.476562 C 3.285156 10.058594 3.261719 9.636719 3.320312 9.210938 C 3.378906 8.785156 3.515625 8.382812 3.734375 8.011719 C 3.953125 7.640625 4.234375 7.324219 4.582031 7.0625 C 4.925781 6.800781 5.308594 6.617188 5.730469 6.507812 C 6.148438 6.398438 6.574219 6.371094 7.003906 6.429688 C 7.433594 6.488281 7.835938 6.625 8.210938 6.84375 Z M 8.210938 6.84375 "/><path style=" stroke:none;fill-rule:nonzero;fill:#d10028;fill-opacity:1;" d="M 8.574219 7.09375 C 9.367188 8.105469 9.511719 9.535156 8.824219 10.714844 C 7.921875 12.265625 5.917969 12.796875 4.355469 11.902344 C 4.21875 11.824219 4.09375 11.742188 3.976562 11.648438 C 4.230469 11.972656 4.546875 12.25 4.925781 12.46875 C 6.488281 13.363281 8.492188 12.832031 9.394531 11.277344 C 10.222656 9.859375 9.84375 8.074219 8.574219 7.09375 Z M 8.574219 7.09375 "/><path style=" stroke:none;fill-rule:nonzero;fill:#ffffff;fill-opacity:1;" d="M 14.085938 6.199219 L 14.085938 3.292969 C 14.085938 3.097656 14.3125 2.984375 14.472656 3.097656 L 16.503906 4.550781 C 16.636719 4.648438 16.636719 4.847656 16.503906 4.941406 L 14.472656 6.394531 C 14.3125 6.511719 14.085938 6.398438 14.085938 6.199219 Z M 14.085938 6.199219 "/><path style=" stroke:none;fill-rule:nonzero;fill:#ffffff;fill-opacity:1;" d="M 25.078125 10.726562 L 22.304688 10.726562 C 22.171875 10.726562 22.0625 10.617188 22.0625 10.484375 L 22.0625 8.636719 C 22.0625 8.503906 22.171875 8.394531 22.304688 8.394531 L 25.078125 8.394531 C 25.214844 8.394531 25.320312 8.503906 25.320312 8.636719 L 25.320312 10.484375 C 25.320312 10.617188 25.214844 10.726562 25.078125 10.726562 Z M 25.078125 10.726562 "/><path style=" stroke:none;fill-rule:nonzero;fill:#ffa91a;fill-opacity:1;" d="M 25.078125 8.394531 L 22.304688 8.394531 C 22.238281 8.394531 22.179688 8.421875 22.132812 8.464844 L 23.445312 9.496094 C 23.589844 9.609375 23.792969 9.609375 23.9375 9.496094 L 25.25 8.464844 C 25.207031 8.421875 25.144531 8.394531 25.078125 8.394531 Z M 25.078125 8.394531 "/><path style=" stroke:none;fill-rule:nonzero;fill:#ffa91a;fill-opacity:1;" d="M 7.832031 11.078125 L 5.285156 11.078125 C 5.21875 11.078125 5.160156 11.023438 5.160156 10.957031 L 5.160156 8.226562 C 5.160156 8.160156 5.21875 8.105469 5.285156 8.105469 L 7.832031 8.105469 C 7.902344 8.105469 7.957031 8.160156 7.957031 8.226562 L 7.957031 10.957031 C 7.957031 11.023438 7.902344 11.078125 7.832031 11.078125 Z M 7.832031 11.078125 "/><path style=" stroke:none;fill-rule:nonzero;fill:#ffffff;fill-opacity:1;" d="M 5.960938 9.78125 L 5.160156 10.949219 C 5.164062 11.023438 5.226562 11.078125 5.300781 11.078125 L 7.082031 11.078125 L 6.191406 9.78125 C 6.136719 9.703125 6.015625 9.703125 5.960938 9.78125 Z M 5.960938 9.78125 "/><path style=" stroke:none;fill-rule:nonzero;fill:#ffffff;fill-opacity:1;" d="M 7.957031 9.539062 L 7.605469 9.023438 C 7.550781 8.941406 7.429688 8.941406 7.375 9.023438 L 5.964844 11.078125 L 7.820312 11.078125 C 7.898438 11.078125 7.957031 11.019531 7.957031 10.941406 Z M 7.957031 9.539062 "/><path style=" stroke:none;fill-rule:nonzero;fill:#ffffff;fill-opacity:1;" d="M 6.429688 8.984375 C 6.429688 9.175781 6.273438 9.335938 6.078125 9.335938 C 5.882812 9.335938 5.722656 9.175781 5.722656 8.984375 C 5.722656 8.789062 5.882812 8.632812 6.078125 8.632812 C 6.273438 8.632812 6.429688 8.789062 6.429688 8.984375 Z M 6.429688 8.984375 "/><path style=" stroke:none;fill-rule:nonzero;fill:#ffc91d;fill-opacity:1;" d="M 15.222656 22.726562 C 15.222656 22.726562 14.753906 23.78125 14.492188 23.773438 C 14.226562 23.769531 14.71875 23.972656 14.71875 23.972656 L 15.132812 23.703125 L 15.4375 23.015625 Z M 15.222656 22.726562 "/><path style=" stroke:none;fill-rule:nonzero;fill:#ffc91d;fill-opacity:1;" d="M 14.972656 23.566406 L 14.761719 23.773438 L 14.492188 23.773438 L 14.492188 25.566406 L 14.632812 25.566406 C 14.714844 25.566406 14.796875 25.59375 14.867188 25.636719 C 14.9375 25.683594 15.015625 25.707031 15.097656 25.707031 L 16.175781 25.707031 L 16.175781 23.566406 Z M 14.972656 23.566406 "/><path style=" stroke:none;fill-rule:nonzero;fill:#ffa91a;fill-opacity:1;" d="M 14.867188 25.488281 C 14.796875 25.445312 14.714844 25.417969 14.632812 25.417969 L 14.492188 25.417969 L 14.492188 25.566406 L 14.632812 25.566406 C 14.714844 25.566406 14.796875 25.59375 14.867188 25.636719 C 14.9375 25.683594 15.015625 25.707031 15.101562 25.707031 L 16.175781 25.707031 L 16.175781 25.558594 L 15.101562 25.558594 C 15.015625 25.558594 14.9375 25.535156 14.867188 25.488281 Z M 14.867188 25.488281 "/><path style=" stroke:none;fill-rule:nonzero;fill:#f79219;fill-opacity:1;" d="M 15.304688 23.566406 C 15.382812 23.675781 15.429688 23.808594 15.429688 23.953125 C 15.429688 24.203125 15.289062 24.425781 15.078125 24.539062 C 15.027344 24.5625 15.027344 24.640625 15.078125 24.667969 C 15.289062 24.777344 15.429688 25 15.429688 25.253906 C 15.429688 25.289062 15.425781 25.324219 15.421875 25.359375 C 15.390625 25.542969 15.539062 25.707031 15.726562 25.707031 L 16.175781 25.707031 L 16.175781 23.566406 Z M 15.304688 23.566406 "/><path style=" stroke:none;fill-rule:nonzero;fill:#ffc91d;fill-opacity:1;" d="M 15.714844 23.085938 L 15.425781 24.011719 L 14.875 23.84375 L 15.265625 22.597656 C 15.285156 22.53125 15.351562 22.496094 15.414062 22.515625 C 15.65625 22.589844 15.792969 22.84375 15.714844 23.085938 Z M 15.714844 23.085938 "/><path style=" stroke:none;fill-rule:nonzero;fill:#ffc91d;fill-opacity:1;" d="M 16.695312 24.636719 L 16.007812 24.636719 C 15.859375 24.636719 15.738281 24.515625 15.738281 24.367188 C 15.738281 24.21875 15.859375 24.101562 16.007812 24.101562 L 16.695312 24.101562 C 16.84375 24.101562 16.964844 24.222656 16.964844 24.367188 C 16.964844 24.515625 16.84375 24.636719 16.695312 24.636719 Z M 16.695312 24.636719 "/><path style=" stroke:none;fill-rule:nonzero;fill:#ffa91a;fill-opacity:1;" d="M 16.695312 24.488281 L 16.007812 24.488281 C 15.882812 24.488281 15.78125 24.40625 15.746094 24.292969 C 15.742188 24.316406 15.738281 24.34375 15.738281 24.367188 C 15.738281 24.515625 15.859375 24.636719 16.007812 24.636719 L 16.695312 24.636719 C 16.84375 24.636719 16.964844 24.515625 16.964844 24.367188 C 16.964844 24.34375 16.960938 24.316406 16.953125 24.292969 C 16.921875 24.40625 16.816406 24.488281 16.695312 24.488281 Z M 16.695312 24.488281 "/><path style=" stroke:none;fill-rule:nonzero;fill:#ffc91d;fill-opacity:1;" d="M 16.5625 25.171875 L 15.871094 25.171875 C 15.722656 25.171875 15.601562 25.050781 15.601562 24.902344 C 15.601562 24.757812 15.722656 24.636719 15.871094 24.636719 L 16.5625 24.636719 C 16.710938 24.636719 16.832031 24.757812 16.832031 24.902344 C 16.832031 25.050781 16.710938 25.171875 16.5625 25.171875 Z M 16.5625 25.171875 "/><path style=" stroke:none;fill-rule:nonzero;fill:#ffa91a;fill-opacity:1;" d="M 16.5625 25.023438 L 15.871094 25.023438 C 15.75 25.023438 15.644531 24.941406 15.613281 24.832031 C 15.605469 24.855469 15.601562 24.878906 15.601562 24.902344 C 15.601562 25.050781 15.722656 25.171875 15.871094 25.171875 L 16.5625 25.171875 C 16.710938 25.171875 16.832031 25.050781 16.832031 24.902344 C 16.832031 24.878906 16.828125 24.855469 16.820312 24.832031 C 16.789062 24.941406 16.683594 25.023438 16.5625 25.023438 Z M 16.5625 25.023438 "/><path style=" stroke:none;fill-rule:nonzero;fill:#ffc91d;fill-opacity:1;" d="M 16.425781 25.707031 L 15.738281 25.707031 C 15.589844 25.707031 15.46875 25.585938 15.46875 25.441406 C 15.46875 25.292969 15.589844 25.171875 15.738281 25.171875 L 16.425781 25.171875 C 16.574219 25.171875 16.695312 25.292969 16.695312 25.441406 C 16.695312 25.585938 16.574219 25.707031 16.425781 25.707031 Z M 16.425781 25.707031 "/><path style=" stroke:none;fill-rule:nonzero;fill:#ffa91a;fill-opacity:1;" d="M 16.425781 25.558594 L 15.738281 25.558594 C 15.617188 25.558594 15.511719 25.476562 15.480469 25.367188 C 15.472656 25.390625 15.46875 25.414062 15.46875 25.441406 C 15.46875 25.585938 15.589844 25.707031 15.738281 25.707031 L 16.425781 25.707031 C 16.574219 25.707031 16.695312 25.585938 16.695312 25.441406 C 16.695312 25.414062 16.691406 25.390625 16.6875 25.367188 C 16.652344 25.476562 16.550781 25.558594 16.425781 25.558594 Z M 16.425781 25.558594 "/><path style=" stroke:none;fill-rule:nonzero;fill:#ffc91d;fill-opacity:1;" d="M 16.828125 24.101562 L 16.140625 24.101562 C 15.992188 24.101562 15.871094 23.980469 15.871094 23.832031 C 15.871094 23.683594 15.992188 23.566406 16.140625 23.566406 L 16.828125 23.566406 C 16.976562 23.566406 17.097656 23.683594 17.097656 23.832031 C 17.097656 23.980469 16.976562 24.101562 16.828125 24.101562 Z M 16.828125 24.101562 "/><path style=" stroke:none;fill-rule:nonzero;fill:#ffa91a;fill-opacity:1;" d="M 16.828125 23.953125 L 16.140625 23.953125 C 16.019531 23.953125 15.914062 23.871094 15.882812 23.757812 C 15.875 23.78125 15.871094 23.808594 15.871094 23.832031 C 15.871094 23.980469 15.992188 24.101562 16.140625 24.101562 L 16.828125 24.101562 C 16.976562 24.101562 17.097656 23.980469 17.097656 23.832031 C 17.097656 23.808594 17.09375 23.78125 17.089844 23.757812 C 17.054688 23.871094 16.953125 23.953125 16.828125 23.953125 Z M 16.828125 23.953125 "/><path style=" stroke:none;fill-rule:nonzero;fill:#ffffff;fill-opacity:1;" d="M 14.3125 25.808594 L 13.578125 25.808594 C 13.476562 25.808594 13.398438 25.726562 13.398438 25.628906 L 13.398438 23.710938 C 13.398438 23.613281 13.476562 23.53125 13.578125 23.53125 L 14.3125 23.53125 C 14.410156 23.53125 14.492188 23.613281 14.492188 23.710938 L 14.492188 25.628906 C 14.492188 25.726562 14.410156 25.808594 14.3125 25.808594 Z M 14.3125 25.808594 "/><path style=" stroke:none;fill-rule:nonzero;fill:#e6e7e8;fill-opacity:1;" d="M 14.3125 25.453125 L 13.578125 25.453125 C 13.476562 25.453125 13.398438 25.371094 13.398438 25.273438 L 13.398438 25.628906 C 13.398438 25.726562 13.476562 25.808594 13.578125 25.808594 L 14.3125 25.808594 C 14.410156 25.808594 14.492188 25.726562 14.492188 25.628906 L 14.492188 25.273438 C 14.492188 25.371094 14.410156 25.453125 14.3125 25.453125 Z M 14.3125 25.453125 "/><path style=" stroke:none;fill-rule:nonzero;fill:#ffffff;fill-opacity:1;" d="M 5.769531 18.097656 C 6.117188 18.097656 6.417969 18.300781 6.558594 18.597656 C 6.699219 18.300781 7 18.09375 7.351562 18.09375 C 7.835938 18.09375 8.230469 18.484375 8.230469 18.964844 C 8.230469 19.945312 6.5625 21.082031 6.5625 21.082031 C 6.5625 21.082031 4.890625 19.949219 4.890625 18.96875 C 4.890625 18.488281 5.28125 18.097656 5.769531 18.097656 Z M 5.769531 18.097656 "/><path style=" stroke:none;fill-rule:nonzero;fill:#ffffff;fill-opacity:1;" d="M 23.691406 17.84375 C 22.785156 17.84375 22.054688 18.574219 22.054688 19.472656 C 22.054688 20.371094 22.785156 21.097656 23.691406 21.097656 C 24.597656 21.097656 25.332031 20.371094 25.332031 19.472656 C 25.332031 18.574219 24.597656 17.84375 23.691406 17.84375 Z M 23.691406 20.183594 C 23.296875 20.183594 22.972656 19.863281 22.972656 19.472656 C 22.972656 19.078125 23.296875 18.757812 23.691406 18.757812 C 24.089844 18.757812 24.410156 19.078125 24.410156 19.472656 C 24.410156 19.863281 24.089844 20.183594 23.691406 20.183594 Z M 23.691406 20.183594 "/><path style=" stroke:none;fill-rule:nonzero;fill:#e6e7e8;fill-opacity:1;" d="M 24.75 18.226562 C 24.988281 18.511719 25.132812 18.875 25.132812 19.273438 C 25.132812 20.171875 24.398438 20.902344 23.496094 20.902344 C 23.09375 20.902344 22.722656 20.757812 22.4375 20.519531 C 22.738281 20.871094 23.1875 21.097656 23.691406 21.097656 C 24.597656 21.097656 25.332031 20.371094 25.332031 19.472656 C 25.332031 18.972656 25.105469 18.523438 24.75 18.226562 Z M 24.75 18.226562 "/><path style=" stroke:none;fill-rule:nonzero;fill:#e6e7e8;fill-opacity:1;" d="M 25.289062 19.101562 L 25.6875 18.753906 C 25.746094 18.699219 25.761719 18.613281 25.722656 18.542969 L 25.511719 18.179688 C 25.46875 18.109375 25.386719 18.078125 25.3125 18.105469 L 24.800781 18.273438 C 25.039062 18.492188 25.214844 18.777344 25.289062 19.101562 Z M 25.289062 19.101562 "/><path style=" stroke:none;fill-rule:nonzero;fill:#f1f2f2;fill-opacity:1;" d="M 21.695312 18.753906 L 22.09375 19.101562 C 22.171875 18.777344 22.34375 18.492188 22.582031 18.273438 L 22.074219 18.105469 C 21.996094 18.078125 21.914062 18.109375 21.875 18.179688 L 21.664062 18.542969 C 21.621094 18.613281 21.636719 18.699219 21.695312 18.753906 Z M 21.695312 18.753906 "/><path style=" stroke:none;fill-rule:nonzero;fill:#f1f2f2;fill-opacity:1;" d="M 23.691406 17.84375 C 23.859375 17.84375 24.019531 17.867188 24.171875 17.914062 L 24.070312 17.40625 C 24.054688 17.328125 23.984375 17.273438 23.902344 17.273438 L 23.480469 17.273438 C 23.398438 17.273438 23.332031 17.328125 23.316406 17.40625 L 23.210938 17.914062 C 23.363281 17.867188 23.523438 17.84375 23.691406 17.84375 Z M 23.691406 17.84375 "/><path style=" stroke:none;fill-rule:nonzero;fill:#e6e7e8;fill-opacity:1;" d="M 25.675781 20.167969 L 25.289062 19.832031 C 25.21875 20.152344 25.050781 20.4375 24.816406 20.65625 L 25.296875 20.816406 C 25.375 20.839844 25.457031 20.808594 25.496094 20.742188 L 25.707031 20.375 C 25.75 20.308594 25.734375 20.21875 25.675781 20.167969 Z M 25.675781 20.167969 "/><path style=" stroke:none;fill-rule:nonzero;fill:#e6e7e8;fill-opacity:1;" d="M 23.691406 21.097656 C 23.523438 21.097656 23.363281 21.074219 23.210938 21.027344 L 23.316406 21.535156 C 23.332031 21.613281 23.398438 21.667969 23.480469 21.667969 L 23.902344 21.667969 C 23.984375 21.667969 24.054688 21.613281 24.070312 21.535156 L 24.171875 21.027344 C 24.019531 21.074219 23.859375 21.097656 23.691406 21.097656 Z M 23.691406 21.097656 "/><path style=" stroke:none;fill-rule:nonzero;fill:#f1f2f2;fill-opacity:1;" d="M 22.09375 19.832031 L 21.710938 20.167969 C 21.648438 20.21875 21.636719 20.308594 21.675781 20.375 L 21.886719 20.742188 C 21.925781 20.808594 22.011719 20.839844 22.085938 20.816406 L 22.566406 20.65625 C 22.335938 20.4375 22.167969 20.152344 22.09375 19.832031 Z M 22.09375 19.832031 "/><path style=" stroke:none;fill-rule:nonzero;fill:#478cf7;fill-opacity:1;" d="M 20.382812 14.5625 C 20.382812 14.90625 20.347656 15.246094 20.28125 15.582031 C 20.214844 15.917969 20.113281 16.242188 19.984375 16.558594 C 19.851562 16.875 19.6875 17.175781 19.496094 17.460938 C 19.304688 17.746094 19.085938 18.007812 18.84375 18.25 C 18.597656 18.492188 18.332031 18.710938 18.046875 18.898438 C 17.757812 19.089844 17.457031 19.25 17.136719 19.382812 C 16.820312 19.511719 16.488281 19.613281 16.152344 19.679688 C 15.8125 19.746094 15.472656 19.78125 15.125 19.78125 C 14.78125 19.78125 14.4375 19.746094 14.101562 19.679688 C 13.761719 19.613281 13.433594 19.511719 13.113281 19.382812 C 12.796875 19.25 12.492188 19.089844 12.207031 18.898438 C 11.917969 18.710938 11.652344 18.492188 11.410156 18.25 C 11.164062 18.007812 10.945312 17.746094 10.753906 17.460938 C 10.5625 17.175781 10.402344 16.875 10.269531 16.558594 C 10.136719 16.242188 10.039062 15.917969 9.96875 15.582031 C 9.902344 15.246094 9.871094 14.90625 9.871094 14.5625 C 9.871094 14.21875 9.902344 13.882812 9.96875 13.546875 C 10.039062 13.210938 10.136719 12.882812 10.269531 12.566406 C 10.402344 12.25 10.5625 11.949219 10.753906 11.664062 C 10.945312 11.378906 11.164062 11.117188 11.410156 10.875 C 11.652344 10.632812 11.917969 10.414062 12.207031 10.226562 C 12.492188 10.035156 12.796875 9.875 13.113281 9.742188 C 13.433594 9.613281 13.761719 9.511719 14.101562 9.445312 C 14.4375 9.378906 14.78125 9.347656 15.125 9.347656 C 15.472656 9.347656 15.8125 9.378906 16.152344 9.445312 C 16.488281 9.511719 16.820312 9.613281 17.136719 9.742188 C 17.457031 9.875 17.757812 10.035156 18.046875 10.226562 C 18.332031 10.414062 18.597656 10.632812 18.84375 10.875 C 19.085938 11.117188 19.304688 11.378906 19.496094 11.664062 C 19.6875 11.949219 19.851562 12.25 19.984375 12.566406 C 20.113281 12.882812 20.214844 13.210938 20.28125 13.546875 C 20.347656 13.882812 20.382812 14.21875 20.382812 14.5625 Z M 20.382812 14.5625 "/><path style=" stroke:none;fill-rule:nonzero;fill:#5e9cf7;fill-opacity:1;" d="M 10.652344 14.789062 C 10.527344 14.789062 10.421875 14.6875 10.421875 14.5625 C 10.421875 14.4375 10.527344 14.335938 10.652344 14.335938 C 10.777344 14.335938 10.878906 14.4375 10.878906 14.5625 C 10.878906 14.6875 10.777344 14.789062 10.652344 14.789062 Z M 10.742188 13.890625 C 10.730469 13.890625 10.714844 13.886719 10.699219 13.886719 C 10.636719 13.875 10.585938 13.839844 10.554688 13.789062 C 10.519531 13.738281 10.507812 13.679688 10.519531 13.617188 C 10.644531 13.027344 10.878906 12.472656 11.21875 11.972656 C 11.550781 11.476562 11.96875 11.058594 12.460938 10.71875 C 12.726562 10.539062 13.007812 10.386719 13.300781 10.261719 C 13.414062 10.214844 13.550781 10.269531 13.597656 10.382812 C 13.625 10.4375 13.625 10.5 13.601562 10.554688 C 13.578125 10.613281 13.535156 10.65625 13.476562 10.679688 C 13.210938 10.789062 12.957031 10.929688 12.722656 11.09375 C 11.8125 11.714844 11.1875 12.644531 10.96875 13.710938 C 10.945312 13.816406 10.851562 13.890625 10.742188 13.890625 Z M 10.742188 13.890625 "/><path style=" stroke:none;fill-rule:nonzero;fill:#ffc91d;fill-opacity:1;" d="M 14.660156 17.109375 C 14.4375 17.109375 14.21875 17.023438 14.046875 16.855469 L 12.339844 15.160156 C 12 14.824219 12 14.277344 12.339844 13.941406 C 12.675781 13.605469 13.226562 13.605469 13.566406 13.941406 L 14.660156 15.027344 L 16.835938 12.871094 C 17.171875 12.535156 17.722656 12.535156 18.0625 12.871094 C 18.402344 13.207031 18.402344 13.753906 18.0625 14.089844 L 15.273438 16.855469 C 15.105469 17.023438 14.882812 17.109375 14.660156 17.109375 Z M 14.660156 17.109375 "/><path style=" stroke:none;fill-rule:nonzero;fill:#377de2;fill-opacity:1;" d="M 14.453125 14.707031 L 13.835938 14.09375 Z M 14.453125 14.707031 "/><path style=" stroke:none;fill-rule:nonzero;fill:#ffa91a;fill-opacity:1;" d="M 18.0625 12.871094 C 18 12.808594 17.929688 12.761719 17.855469 12.722656 C 18.03125 13.050781 17.984375 13.460938 17.707031 13.738281 L 14.921875 16.503906 C 14.75 16.671875 14.527344 16.753906 14.304688 16.753906 C 14.085938 16.753906 13.863281 16.671875 13.691406 16.503906 L 14.046875 16.855469 C 14.21875 17.023438 14.4375 17.109375 14.660156 17.109375 C 14.882812 17.109375 15.105469 17.023438 15.273438 16.855469 L 18.0625 14.089844 C 18.402344 13.753906 18.402344 13.207031 18.0625 12.871094 Z M 18.0625 12.871094 "/><path style=" stroke:none;fill-rule:nonzero;fill:#377de2;fill-opacity:1;" d="M 18.132812 10.285156 C 18.726562 11.128906 19.078125 12.160156 19.078125 13.269531 C 19.078125 16.148438 16.726562 18.484375 13.820312 18.484375 C 12.703125 18.484375 11.667969 18.136719 10.816406 17.546875 C 11.765625 18.894531 13.339844 19.78125 15.125 19.78125 C 18.03125 19.78125 20.382812 17.445312 20.382812 14.5625 C 20.382812 12.792969 19.492188 11.226562 18.132812 10.285156 Z M 18.132812 10.285156 "/><path style=" stroke:none;fill-rule:nonzero;fill:#2266d3;fill-opacity:1;" d="M 18.503906 10.566406 C 19.269531 11.472656 19.730469 12.640625 19.730469 13.914062 C 19.730469 16.796875 17.378906 19.132812 14.472656 19.132812 C 13.1875 19.132812 12.011719 18.675781 11.097656 17.914062 C 12.0625 19.054688 13.507812 19.78125 15.125 19.78125 C 18.03125 19.78125 20.382812 17.445312 20.382812 14.5625 C 20.382812 12.957031 19.652344 11.523438 18.503906 10.566406 Z M 18.503906 10.566406 "/></g></svg>