<svg xmlns="http://www.w3.org/2000/svg" xmlns:xlink="http://www.w3.org/1999/xlink" width="40" zoomAndPan="magnify" viewBox="0 0 30 30.000001" height="40" preserveAspectRatio="xMidYMid meet" version="1.2"><defs><clipPath id="f8f2cd5632"><path d="M 8 4.941406 L 22 4.941406 L 22 23.8125 L 8 23.8125 Z M 8 4.941406 "/></clipPath><clipPath id="d9d33bca18"><path d="M 7 4.941406 L 21 4.941406 L 21 23.8125 L 7 23.8125 Z M 7 4.941406 "/></clipPath><clipPath id="b842cd80c9"><path d="M 22 10 L 28.125 10 L 28.125 17 L 22 17 Z M 22 10 "/></clipPath></defs><g id="dcd50446eb"><g clip-rule="nonzero" clip-path="url(#f8f2cd5632)"><path style=" stroke:none;fill-rule:nonzero;fill:#020203;fill-opacity:1;" d="M 20.105469 4.996094 L 17.871094 4.996094 C 17.730469 4.996094 17.617188 5.121094 17.617188 5.269531 C 17.617188 5.625 17.351562 5.910156 17.023438 5.910156 L 12.324219 5.910156 C 11.996094 5.910156 11.726562 5.625 11.726562 5.269531 C 11.726562 5.121094 11.613281 4.996094 11.476562 4.996094 L 9.3125 4.996094 C 8.617188 4.996094 8.054688 5.605469 8.054688 6.351562 L 8.054688 23.816406 L 21.363281 23.816406 L 21.363281 6.351562 C 21.363281 5.605469 20.800781 4.996094 20.105469 4.996094 Z M 20.105469 4.996094 "/></g><g clip-rule="nonzero" clip-path="url(#d9d33bca18)"><path style=" stroke:none;fill-rule:nonzero;fill:#ffffff;fill-opacity:1;" d="M 19.320312 4.996094 L 17.085938 4.996094 C 16.945312 4.996094 16.832031 5.121094 16.832031 5.269531 C 16.832031 5.625 16.566406 5.910156 16.238281 5.910156 L 11.539062 5.910156 C 11.210938 5.910156 10.945312 5.625 10.945312 5.269531 C 10.945312 5.121094 10.832031 4.996094 10.691406 4.996094 L 8.527344 4.996094 C 7.832031 4.996094 7.269531 5.605469 7.269531 6.351562 L 7.269531 23.816406 L 20.578125 23.816406 L 20.578125 6.351562 C 20.578125 5.605469 20.015625 4.996094 19.320312 4.996094 Z M 19.320312 4.996094 "/><path style=" stroke:none;fill-rule:nonzero;fill:#020203;fill-opacity:1;" d="M 19.320312 4.941406 L 17.085938 4.941406 C 16.917969 4.941406 16.777344 5.089844 16.777344 5.269531 C 16.777344 5.59375 16.535156 5.859375 16.238281 5.859375 L 11.539062 5.859375 C 11.242188 5.859375 11 5.59375 11 5.269531 C 11 5.089844 10.859375 4.941406 10.691406 4.941406 L 8.527344 4.941406 C 7.804688 4.941406 7.214844 5.574219 7.214844 6.351562 L 7.214844 23.816406 L 7.324219 23.816406 L 7.324219 6.351562 C 7.324219 5.632812 7.863281 5.050781 8.527344 5.050781 L 10.691406 5.050781 C 10.800781 5.050781 10.890625 5.148438 10.890625 5.269531 C 10.890625 5.652344 11.179688 5.964844 11.539062 5.964844 L 16.238281 5.964844 C 16.597656 5.964844 16.886719 5.652344 16.886719 5.269531 C 16.886719 5.148438 16.976562 5.050781 17.085938 5.050781 L 19.320312 5.050781 C 19.984375 5.050781 20.523438 5.632812 20.523438 6.351562 L 20.523438 23.816406 L 20.632812 23.816406 L 20.632812 6.351562 C 20.632812 5.574219 20.042969 4.941406 19.320312 4.941406 Z M 19.320312 4.941406 "/></g><path style=" stroke:none;fill-rule:nonzero;fill:#020203;fill-opacity:1;" d="M 19.664062 9.617188 C 13.910156 9.496094 8.15625 9.378906 2.402344 9.261719 C 2.402344 8.785156 2.402344 8.3125 2.402344 7.839844 C 8.15625 7.722656 13.910156 7.601562 19.664062 7.484375 C 19.664062 8.195312 19.664062 8.90625 19.664062 9.617188 Z M 19.664062 9.617188 "/><path style=" stroke:none;fill-rule:nonzero;fill:#f9af29;fill-opacity:1;" d="M 19.320312 9.277344 C 13.566406 9.160156 7.8125 9.039062 2.058594 8.921875 C 2.058594 8.449219 2.058594 7.972656 2.058594 7.5 C 7.8125 7.382812 13.566406 7.261719 19.320312 7.144531 C 19.320312 7.855469 19.320312 8.566406 19.320312 9.277344 Z M 19.320312 9.277344 "/><path style=" stroke:none;fill-rule:nonzero;fill:#020203;fill-opacity:1;" d="M 19.375 9.332031 L 19.316406 9.332031 L 2.003906 8.972656 L 2.003906 7.449219 L 19.375 7.089844 Z M 2.113281 8.867188 L 19.265625 9.222656 L 19.265625 7.199219 L 2.113281 7.554688 Z M 2.113281 8.867188 "/><path style=" stroke:none;fill-rule:nonzero;fill:#020203;fill-opacity:1;" d="M 18.675781 8.640625 L 18.671875 8.640625 L 18.28125 8.335938 C 18.28125 8.332031 18.277344 8.332031 18.277344 8.328125 C 18.292969 8.300781 18.308594 8.269531 18.324219 8.238281 C 18.347656 8.175781 18.355469 8.113281 18.355469 8.050781 C 18.355469 7.984375 18.339844 7.921875 18.3125 7.863281 C 18.28125 7.792969 18.238281 7.730469 18.175781 7.679688 C 18.09375 7.609375 17.988281 7.566406 17.878906 7.558594 C 17.796875 7.554688 17.71875 7.566406 17.648438 7.597656 C 17.582031 7.625 17.523438 7.664062 17.476562 7.714844 C 17.429688 7.761719 17.390625 7.820312 17.367188 7.882812 C 17.34375 7.941406 17.332031 8.007812 17.335938 8.070312 C 17.335938 8.136719 17.351562 8.199219 17.375 8.257812 C 17.40625 8.328125 17.453125 8.390625 17.515625 8.441406 C 17.597656 8.511719 17.703125 8.554688 17.8125 8.558594 C 17.890625 8.566406 17.96875 8.550781 18.042969 8.523438 C 18.074219 8.507812 18.105469 8.492188 18.132812 8.472656 C 18.136719 8.476562 18.136719 8.480469 18.140625 8.484375 L 18.480469 8.835938 L 18.484375 8.839844 C 18.507812 8.859375 18.539062 8.871094 18.570312 8.871094 C 18.609375 8.871094 18.644531 8.855469 18.671875 8.828125 C 18.703125 8.800781 18.71875 8.765625 18.714844 8.730469 C 18.714844 8.695312 18.699219 8.664062 18.675781 8.640625 Z M 17.84375 8.410156 C 17.746094 8.410156 17.652344 8.371094 17.578125 8.292969 C 17.460938 8.164062 17.457031 7.964844 17.574219 7.832031 C 17.644531 7.75 17.746094 7.707031 17.84375 7.707031 C 17.941406 7.707031 18.039062 7.746094 18.109375 7.824219 C 18.230469 7.957031 18.234375 8.15625 18.117188 8.289062 C 18.046875 8.371094 17.945312 8.410156 17.84375 8.410156 Z M 17.84375 8.410156 "/><path style=" stroke:none;fill-rule:nonzero;fill:#020203;fill-opacity:1;" d="M 25.808594 13.496094 C 20.625 13.761719 15.445312 14.023438 10.261719 14.289062 C 10.261719 13.484375 10.261719 12.683594 10.261719 11.882812 C 15.445312 11.238281 20.625 10.59375 25.808594 9.949219 C 25.808594 11.132812 25.808594 12.316406 25.808594 13.496094 Z M 25.808594 13.496094 "/><path style=" stroke:none;fill-rule:nonzero;fill:#020203;fill-opacity:1;" d="M 25.808594 17.960938 C 20.625 17.746094 15.445312 17.527344 10.261719 17.3125 C 10.261719 16.511719 10.261719 15.707031 10.261719 14.90625 C 15.445312 14.742188 20.625 14.578125 25.808594 14.414062 C 25.808594 15.597656 25.808594 16.78125 25.808594 17.960938 Z M 25.808594 17.960938 "/><path style=" stroke:none;fill-rule:nonzero;fill:#020203;fill-opacity:1;" d="M 25.808594 22.503906 C 20.625 21.800781 15.445312 21.09375 10.261719 20.386719 C 10.261719 19.585938 10.261719 18.785156 10.261719 17.984375 C 15.445312 18.308594 20.625 18.632812 25.808594 18.953125 C 25.808594 20.136719 25.808594 21.320312 25.808594 22.503906 Z M 25.808594 22.503906 "/><path style=" stroke:none;fill-rule:nonzero;fill:#ffffff;fill-opacity:1;" d="M 25.347656 13.027344 C 20.167969 13.34375 14.984375 13.660156 9.800781 13.976562 C 9.800781 13.1875 9.800781 12.398438 9.800781 11.609375 C 14.984375 10.910156 20.167969 10.210938 25.347656 9.511719 C 25.347656 10.683594 25.347656 11.855469 25.347656 13.027344 Z M 25.347656 13.027344 "/><path style=" stroke:none;fill-rule:nonzero;fill:#020203;fill-opacity:1;" d="M 9.746094 14.035156 L 9.746094 11.5625 L 25.402344 9.449219 L 25.402344 13.078125 Z M 9.855469 11.65625 L 9.855469 13.921875 L 25.292969 12.976562 L 25.292969 9.574219 Z M 9.855469 11.65625 "/><path style=" stroke:none;fill-rule:nonzero;fill:#ffffff;fill-opacity:1;" d="M 25.347656 17.449219 C 20.167969 17.285156 14.984375 17.125 9.800781 16.960938 C 9.800781 16.167969 9.800781 15.378906 9.800781 14.589844 C 14.984375 14.371094 20.167969 14.152344 25.347656 13.933594 C 25.347656 15.105469 25.347656 16.277344 25.347656 17.449219 Z M 25.347656 17.449219 "/><path style=" stroke:none;fill-rule:nonzero;fill:#020203;fill-opacity:1;" d="M 25.402344 17.503906 L 25.347656 17.503906 L 9.746094 17.011719 L 9.746094 14.539062 L 9.800781 14.535156 L 25.402344 13.878906 Z M 9.855469 16.90625 L 25.292969 17.394531 L 25.292969 13.992188 L 9.855469 14.640625 Z M 9.855469 16.90625 "/><path style=" stroke:none;fill-rule:nonzero;fill:#020203;fill-opacity:1;" d="M 11.757812 12.90625 C 11.398438 12.9375 11.035156 12.96875 10.675781 13 C 10.675781 12.96875 10.675781 12.9375 10.675781 12.902344 C 11.035156 12.871094 11.398438 12.835938 11.757812 12.804688 C 11.757812 12.835938 11.757812 12.871094 11.757812 12.90625 Z M 11.757812 12.90625 "/><path style=" stroke:none;fill-rule:nonzero;fill:#020203;fill-opacity:1;" d="M 15.710938 12.554688 C 14.609375 12.652344 13.507812 12.75 12.40625 12.847656 C 12.40625 12.8125 12.40625 12.777344 12.40625 12.742188 C 13.507812 12.644531 14.609375 12.542969 15.710938 12.441406 C 15.710938 12.476562 15.710938 12.515625 15.710938 12.554688 Z M 15.710938 12.554688 "/><path style=" stroke:none;fill-rule:nonzero;fill:#020203;fill-opacity:1;" d="M 21.640625 12.023438 C 19.847656 12.183594 18.058594 12.34375 16.265625 12.503906 C 16.265625 12.464844 16.265625 12.425781 16.265625 12.390625 C 18.058594 12.222656 19.847656 12.058594 21.640625 11.894531 C 21.640625 11.9375 21.640625 11.980469 21.640625 12.023438 Z M 21.640625 12.023438 "/><path style=" stroke:none;fill-rule:nonzero;fill:#020203;fill-opacity:1;" d="M 24.695312 11.753906 C 23.855469 11.828125 23.015625 11.902344 22.175781 11.976562 C 22.175781 11.933594 22.175781 11.890625 22.175781 11.84375 C 23.015625 11.769531 23.855469 11.691406 24.695312 11.613281 C 24.695312 11.660156 24.695312 11.707031 24.695312 11.753906 Z M 24.695312 11.753906 "/><path style=" stroke:none;fill-rule:nonzero;fill:#020203;fill-opacity:1;" d="M 17.964844 12.847656 C 15.535156 13.035156 13.105469 13.222656 10.675781 13.40625 C 10.675781 13.375 10.675781 13.34375 10.675781 13.308594 C 13.105469 13.117188 15.535156 12.921875 17.964844 12.726562 C 17.964844 12.769531 17.964844 12.808594 17.964844 12.847656 Z M 17.964844 12.847656 "/><path style=" stroke:none;fill-rule:nonzero;fill:#020203;fill-opacity:1;" d="M 21.21875 12.597656 C 20.285156 12.667969 19.351562 12.742188 18.417969 12.8125 C 18.417969 12.773438 18.417969 12.730469 18.417969 12.691406 C 19.351562 12.617188 20.285156 12.542969 21.21875 12.46875 C 21.21875 12.511719 21.21875 12.554688 21.21875 12.597656 Z M 21.21875 12.597656 "/><path style=" stroke:none;fill-rule:nonzero;fill:#020203;fill-opacity:1;" d="M 23.828125 12.398438 C 23.042969 12.457031 22.257812 12.519531 21.472656 12.578125 C 21.472656 12.535156 21.472656 12.492188 21.472656 12.449219 C 22.257812 12.386719 23.042969 12.324219 23.828125 12.257812 C 23.828125 12.304688 23.828125 12.351562 23.828125 12.398438 Z M 23.828125 12.398438 "/><path style=" stroke:none;fill-rule:nonzero;fill:#f9af29;fill-opacity:1;" d="M 23.769531 10.964844 C 19.40625 11.4375 15.039062 11.90625 10.675781 12.378906 C 10.675781 12.257812 10.675781 12.132812 10.675781 12.011719 C 15.039062 11.492188 19.40625 10.972656 23.769531 10.453125 C 23.769531 10.621094 23.769531 10.792969 23.769531 10.964844 Z M 23.769531 10.964844 "/><path style=" stroke:none;fill-rule:nonzero;fill:#020203;fill-opacity:1;" d="M 18.265625 16.050781 C 15.738281 16.042969 13.207031 16.035156 10.675781 16.03125 C 10.675781 15.996094 10.675781 15.964844 10.675781 15.933594 C 13.207031 15.929688 15.738281 15.929688 18.265625 15.929688 C 18.265625 15.96875 18.265625 16.007812 18.265625 16.050781 Z M 18.265625 16.050781 "/><path style=" stroke:none;fill-rule:nonzero;fill:#020203;fill-opacity:1;" d="M 22.527344 16.0625 C 21.210938 16.058594 19.898438 16.054688 18.582031 16.050781 C 18.582031 16.011719 18.582031 15.96875 18.582031 15.929688 C 19.898438 15.929688 21.210938 15.929688 22.527344 15.925781 C 22.527344 15.972656 22.527344 16.015625 22.527344 16.0625 Z M 22.527344 16.0625 "/><path style=" stroke:none;fill-rule:nonzero;fill:#020203;fill-opacity:1;" d="M 11.949219 16.453125 C 11.523438 16.449219 11.101562 16.441406 10.675781 16.4375 C 10.675781 16.402344 10.675781 16.371094 10.675781 16.335938 C 11.101562 16.34375 11.523438 16.347656 11.949219 16.351562 C 11.949219 16.386719 11.949219 16.421875 11.949219 16.453125 Z M 11.949219 16.453125 "/><path style=" stroke:none;fill-rule:nonzero;fill:#020203;fill-opacity:1;" d="M 17.453125 16.535156 C 15.839844 16.511719 14.226562 16.488281 12.613281 16.464844 C 12.613281 16.429688 12.613281 16.394531 12.613281 16.359375 C 14.226562 16.378906 15.839844 16.398438 17.453125 16.417969 C 17.453125 16.457031 17.453125 16.496094 17.453125 16.535156 Z M 17.453125 16.535156 "/><path style=" stroke:none;fill-rule:nonzero;fill:#020203;fill-opacity:1;" d="M 23.570312 16.628906 C 21.621094 16.597656 19.671875 16.570312 17.722656 16.539062 C 17.722656 16.5 17.722656 16.460938 17.722656 16.421875 C 19.671875 16.445312 21.621094 16.46875 23.570312 16.492188 C 23.570312 16.535156 23.570312 16.582031 23.570312 16.628906 Z M 23.570312 16.628906 "/><path style=" stroke:none;fill-rule:nonzero;fill:#f9af29;fill-opacity:1;" d="M 21.375 15.230469 C 17.808594 15.289062 14.242188 15.347656 10.675781 15.40625 C 10.675781 15.285156 10.675781 15.160156 10.675781 15.039062 C 14.242188 14.941406 17.808594 14.84375 21.375 14.746094 C 21.375 14.910156 21.375 15.070312 21.375 15.230469 Z M 21.375 15.230469 "/><path style=" stroke:none;fill-rule:nonzero;fill:#ffffff;fill-opacity:1;" d="M 25.347656 21.949219 C 20.167969 21.296875 14.984375 20.644531 9.800781 19.992188 C 9.800781 19.203125 9.800781 18.414062 9.800781 17.621094 C 14.984375 17.894531 20.167969 18.164062 25.347656 18.433594 C 25.347656 19.605469 25.347656 20.777344 25.347656 21.949219 Z M 25.347656 21.949219 "/><path style=" stroke:none;fill-rule:nonzero;fill:#020203;fill-opacity:1;" d="M 25.402344 22.011719 L 25.34375 22.003906 L 9.796875 20.046875 L 9.746094 20.039062 L 9.746094 17.566406 L 25.402344 18.382812 Z M 9.855469 19.945312 L 25.292969 21.886719 L 25.292969 18.484375 L 9.855469 17.679688 Z M 9.855469 19.945312 "/><path style=" stroke:none;fill-rule:nonzero;fill:#020203;fill-opacity:1;" d="M 16.964844 19.753906 C 14.867188 19.550781 12.769531 19.347656 10.675781 19.144531 C 10.675781 19.113281 10.675781 19.082031 10.675781 19.046875 C 12.769531 19.246094 14.867188 19.441406 16.964844 19.636719 C 16.964844 19.675781 16.964844 19.714844 16.964844 19.753906 Z M 16.964844 19.753906 "/><path style=" stroke:none;fill-rule:nonzero;fill:#020203;fill-opacity:1;" d="M 22.527344 20.292969 C 20.777344 20.125 19.027344 19.953125 17.277344 19.785156 C 17.277344 19.746094 17.277344 19.707031 17.277344 19.667969 C 19.027344 19.832031 20.777344 19.996094 22.527344 20.160156 C 22.527344 20.203125 22.527344 20.25 22.527344 20.292969 Z M 22.527344 20.292969 "/><path style=" stroke:none;fill-rule:nonzero;fill:#020203;fill-opacity:1;" d="M 12.976562 19.804688 C 12.210938 19.71875 11.441406 19.636719 10.675781 19.550781 C 10.675781 19.519531 10.675781 19.484375 10.675781 19.453125 C 11.441406 19.535156 12.210938 19.617188 12.976562 19.699219 C 12.976562 19.734375 12.976562 19.769531 12.976562 19.804688 Z M 12.976562 19.804688 "/><path style=" stroke:none;fill-rule:nonzero;fill:#020203;fill-opacity:1;" d="M 18.558594 20.410156 C 16.917969 20.234375 15.277344 20.054688 13.640625 19.875 C 13.640625 19.839844 13.640625 19.804688 13.640625 19.769531 C 15.277344 19.941406 16.917969 20.117188 18.558594 20.289062 C 18.558594 20.332031 18.558594 20.371094 18.558594 20.410156 Z M 18.558594 20.410156 "/><path style=" stroke:none;fill-rule:nonzero;fill:#020203;fill-opacity:1;" d="M 24.058594 21.011719 C 22.3125 20.820312 20.566406 20.632812 18.824219 20.441406 C 18.824219 20.398438 18.824219 20.359375 18.824219 20.316406 C 20.566406 20.503906 22.3125 20.6875 24.058594 20.875 C 24.058594 20.917969 24.058594 20.964844 24.058594 21.011719 Z M 24.058594 21.011719 "/><path style=" stroke:none;fill-rule:nonzero;fill:#f9af29;fill-opacity:1;" d="M 22.679688 19.457031 C 18.679688 19.144531 14.675781 18.835938 10.675781 18.523438 C 10.675781 18.398438 10.675781 18.277344 10.675781 18.15625 C 14.675781 18.421875 18.679688 18.691406 22.679688 18.957031 C 22.679688 19.125 22.679688 19.292969 22.679688 19.457031 Z M 22.679688 19.457031 "/><path style=" stroke:none;fill-rule:nonzero;fill:#020203;fill-opacity:1;" d="M 26.648438 12.757812 L 22.785156 11.210938 C 22.683594 11.167969 22.558594 11.285156 22.597656 11.386719 L 24.011719 15.238281 C 24.039062 15.3125 24.140625 15.320312 24.210938 15.257812 L 24.777344 14.722656 C 24.832031 14.671875 24.910156 14.664062 24.953125 14.707031 L 26.808594 16.605469 C 26.851562 16.648438 26.929688 16.640625 26.984375 16.589844 L 27.902344 15.730469 C 27.957031 15.675781 27.964844 15.597656 27.921875 15.554688 L 26.066406 13.660156 C 26.027344 13.613281 26.035156 13.539062 26.089844 13.484375 L 26.65625 12.953125 C 26.726562 12.886719 26.722656 12.789062 26.648438 12.757812 Z M 26.648438 12.757812 "/><g clip-rule="nonzero" clip-path="url(#b842cd80c9)"><path style=" stroke:none;fill-rule:nonzero;fill:#ffffff;fill-opacity:1;" d="M 26.761719 12.21875 L 22.894531 10.667969 C 22.796875 10.628906 22.671875 10.746094 22.707031 10.847656 L 24.125 14.699219 C 24.152344 14.773438 24.253906 14.78125 24.324219 14.714844 L 24.890625 14.183594 C 24.945312 14.128906 25.023438 14.125 25.066406 14.167969 L 26.921875 16.066406 C 26.964844 16.109375 27.042969 16.101562 27.097656 16.050781 L 28.015625 15.1875 C 28.070312 15.136719 28.078125 15.058594 28.035156 15.015625 L 26.179688 13.117188 C 26.136719 13.074219 26.148438 12.996094 26.203125 12.945312 L 26.769531 12.410156 C 26.839844 12.347656 26.835938 12.246094 26.761719 12.21875 Z M 26.761719 12.21875 "/><path style=" stroke:none;fill-rule:nonzero;fill:#020203;fill-opacity:1;" d="M 26.996094 16.148438 C 26.953125 16.148438 26.910156 16.132812 26.882812 16.101562 L 25.027344 14.203125 C 25.015625 14.191406 24.996094 14.191406 24.988281 14.191406 C 24.964844 14.195312 24.945312 14.203125 24.925781 14.222656 L 24.359375 14.753906 C 24.308594 14.800781 24.242188 14.824219 24.179688 14.808594 C 24.128906 14.796875 24.089844 14.765625 24.074219 14.71875 L 22.65625 10.863281 C 22.632812 10.796875 22.65625 10.722656 22.714844 10.667969 C 22.773438 10.613281 22.851562 10.59375 22.917969 10.621094 L 26.78125 12.167969 C 26.828125 12.1875 26.859375 12.226562 26.871094 12.277344 C 26.882812 12.335938 26.859375 12.402344 26.808594 12.449219 L 26.242188 12.984375 C 26.207031 13.015625 26.199219 13.058594 26.222656 13.082031 L 28.074219 14.980469 C 28.109375 15.011719 28.121094 15.058594 28.117188 15.105469 C 28.109375 15.152344 28.085938 15.195312 28.050781 15.226562 L 27.136719 16.089844 C 27.09375 16.128906 27.042969 16.148438 26.996094 16.148438 Z M 24.992188 14.085938 C 25.035156 14.085938 25.078125 14.101562 25.105469 14.128906 L 26.960938 16.027344 C 26.984375 16.050781 27.027344 16.042969 27.0625 16.011719 L 27.976562 15.148438 C 27.992188 15.132812 28.003906 15.113281 28.007812 15.09375 C 28.007812 15.082031 28.007812 15.066406 27.996094 15.054688 L 26.140625 13.15625 C 26.078125 13.089844 26.089844 12.980469 26.164062 12.90625 L 26.730469 12.375 C 26.753906 12.351562 26.769531 12.320312 26.761719 12.296875 C 26.761719 12.28125 26.753906 12.273438 26.738281 12.265625 L 22.875 10.71875 C 22.84375 10.707031 22.808594 10.726562 22.789062 10.746094 C 22.769531 10.765625 22.75 10.796875 22.761719 10.828125 L 24.175781 14.679688 C 24.179688 14.695312 24.191406 14.703125 24.207031 14.703125 C 24.230469 14.710938 24.261719 14.699219 24.285156 14.675781 L 24.851562 14.144531 C 24.886719 14.109375 24.933594 14.089844 24.976562 14.085938 C 24.984375 14.085938 24.988281 14.085938 24.992188 14.085938 Z M 24.992188 14.085938 "/></g></g></svg>