<svg xmlns="http://www.w3.org/2000/svg" xmlns:xlink="http://www.w3.org/1999/xlink" width="40" zoomAndPan="magnify" viewBox="0 0 30 30.000001" height="40" preserveAspectRatio="xMidYMid meet" version="1.2"><defs><clipPath id="e456f7dd73"><path d="M 8 6 L 21 6 L 21 23.386719 L 8 23.386719 Z M 8 6 "/></clipPath><clipPath id="eb740c2ae7"><path d="M 8 6 L 20 6 L 20 23.386719 L 8 23.386719 Z M 8 6 "/></clipPath><clipPath id="5f273a8c09"><path d="M 8 5.964844 L 20 5.964844 L 20 23.386719 L 8 23.386719 Z M 8 5.964844 "/></clipPath><clipPath id="b8bd29bdf6"><path d="M 3.386719 8 L 20 8 L 20 11 L 3.386719 11 Z M 3.386719 8 "/></clipPath><clipPath id="9679d17861"><path d="M 3.386719 8 L 19 8 L 19 10 L 3.386719 10 Z M 3.386719 8 "/></clipPath><clipPath id="cea4375f79"><path d="M 3.386719 7 L 19 7 L 19 11 L 3.386719 11 Z M 3.386719 7 "/></clipPath><clipPath id="3ff46c02f9"><path d="M 21 11 L 26.613281 11 L 26.613281 17 L 21 17 Z M 21 11 "/></clipPath></defs><g id="4242347559"><g clip-rule="nonzero" clip-path="url(#e456f7dd73)"><path style=" stroke:none;fill-rule:nonzero;fill:#020203;fill-opacity:1;" d="M 19.480469 6.015625 L 17.496094 6.015625 C 17.371094 6.015625 17.269531 6.128906 17.269531 6.269531 C 17.269531 6.59375 17.035156 6.859375 16.742188 6.859375 L 12.566406 6.859375 C 12.273438 6.859375 12.039062 6.59375 12.039062 6.269531 C 12.039062 6.128906 11.9375 6.015625 11.8125 6.015625 L 9.890625 6.015625 C 9.273438 6.015625 8.773438 6.574219 8.773438 7.265625 L 8.773438 23.386719 L 20.597656 23.386719 L 20.597656 7.265625 C 20.597656 6.574219 20.097656 6.015625 19.480469 6.015625 Z M 19.480469 6.015625 "/></g><g clip-rule="nonzero" clip-path="url(#eb740c2ae7)"><path style=" stroke:none;fill-rule:nonzero;fill:#ffffff;fill-opacity:1;" d="M 18.785156 6.015625 L 16.796875 6.015625 C 16.675781 6.015625 16.574219 6.128906 16.574219 6.269531 C 16.574219 6.59375 16.335938 6.859375 16.046875 6.859375 L 11.867188 6.859375 C 11.578125 6.859375 11.339844 6.59375 11.339844 6.269531 C 11.339844 6.128906 11.238281 6.015625 11.113281 6.015625 L 9.191406 6.015625 C 8.574219 6.015625 8.074219 6.574219 8.074219 7.265625 L 8.074219 23.386719 L 19.902344 23.386719 L 19.902344 7.265625 C 19.902344 6.574219 19.402344 6.015625 18.785156 6.015625 Z M 18.785156 6.015625 "/></g><g clip-rule="nonzero" clip-path="url(#5f273a8c09)"><path style=" stroke:none;fill-rule:nonzero;fill:#020203;fill-opacity:1;" d="M 18.785156 5.964844 L 16.796875 5.964844 C 16.648438 5.964844 16.523438 6.101562 16.523438 6.265625 C 16.523438 6.566406 16.308594 6.808594 16.046875 6.808594 L 11.867188 6.808594 C 11.605469 6.808594 11.386719 6.566406 11.386719 6.265625 C 11.386719 6.101562 11.265625 5.964844 11.113281 5.964844 L 9.191406 5.964844 C 8.550781 5.964844 8.027344 6.550781 8.027344 7.265625 L 8.027344 23.386719 L 8.125 23.386719 L 8.125 7.265625 C 8.125 6.605469 8.601562 6.066406 9.191406 6.066406 L 11.113281 6.066406 C 11.210938 6.066406 11.292969 6.15625 11.292969 6.265625 C 11.292969 6.621094 11.550781 6.910156 11.867188 6.910156 L 16.046875 6.910156 C 16.363281 6.910156 16.621094 6.621094 16.621094 6.265625 C 16.621094 6.15625 16.703125 6.066406 16.796875 6.066406 L 18.785156 6.066406 C 19.375 6.066406 19.855469 6.605469 19.855469 7.265625 L 19.855469 23.386719 L 19.949219 23.386719 L 19.949219 7.265625 C 19.949219 6.550781 19.429688 5.964844 18.785156 5.964844 Z M 18.785156 5.964844 "/></g><g clip-rule="nonzero" clip-path="url(#b8bd29bdf6)"><path style=" stroke:none;fill-rule:nonzero;fill:#020203;fill-opacity:1;" d="M 19.089844 10.28125 C 13.976562 10.171875 8.863281 10.0625 3.75 9.953125 C 3.75 9.515625 3.75 9.078125 3.75 8.640625 C 8.863281 8.53125 13.976562 8.421875 19.089844 8.3125 C 19.089844 8.96875 19.089844 9.625 19.089844 10.28125 Z M 19.089844 10.28125 "/></g><g clip-rule="nonzero" clip-path="url(#9679d17861)"><path style=" stroke:none;fill-rule:nonzero;fill:#f9af29;fill-opacity:1;" d="M 18.785156 9.964844 C 13.667969 9.855469 8.554688 9.746094 3.441406 9.636719 C 3.441406 9.199219 3.441406 8.765625 3.441406 8.328125 C 8.554688 8.21875 13.667969 8.109375 18.785156 8 C 18.785156 8.65625 18.785156 9.308594 18.785156 9.964844 Z M 18.785156 9.964844 "/></g><g clip-rule="nonzero" clip-path="url(#cea4375f79)"><path style=" stroke:none;fill-rule:nonzero;fill:#020203;fill-opacity:1;" d="M 18.832031 10.015625 L 18.78125 10.015625 L 3.394531 9.6875 L 3.394531 8.277344 L 18.832031 7.949219 Z M 3.492188 9.589844 L 18.734375 9.914062 L 18.734375 8.050781 L 3.492188 8.375 Z M 3.492188 9.589844 "/></g><path style=" stroke:none;fill-rule:nonzero;fill:#020203;fill-opacity:1;" d="M 18.210938 9.378906 L 17.863281 9.097656 C 17.859375 9.09375 17.859375 9.09375 17.855469 9.089844 C 17.871094 9.066406 17.886719 9.035156 17.898438 9.007812 C 17.917969 8.953125 17.929688 8.894531 17.925781 8.832031 C 17.925781 8.773438 17.914062 8.714844 17.890625 8.660156 C 17.863281 8.59375 17.820312 8.539062 17.765625 8.492188 C 17.691406 8.425781 17.597656 8.386719 17.5 8.382812 C 17.429688 8.378906 17.363281 8.390625 17.296875 8.417969 C 17.238281 8.441406 17.1875 8.476562 17.144531 8.523438 C 17.101562 8.570312 17.070312 8.621094 17.046875 8.679688 C 17.027344 8.734375 17.019531 8.792969 17.019531 8.855469 C 17.019531 8.914062 17.03125 8.972656 17.054688 9.027344 C 17.082031 9.089844 17.125 9.148438 17.179688 9.195312 C 17.253906 9.261719 17.347656 9.296875 17.445312 9.304688 C 17.515625 9.308594 17.582031 9.296875 17.648438 9.269531 C 17.675781 9.257812 17.703125 9.242188 17.726562 9.226562 C 17.730469 9.230469 17.734375 9.230469 17.734375 9.234375 L 18.039062 9.558594 L 18.039062 9.5625 C 18.0625 9.582031 18.089844 9.59375 18.117188 9.59375 C 18.152344 9.59375 18.183594 9.578125 18.210938 9.554688 C 18.234375 9.527344 18.246094 9.496094 18.246094 9.460938 C 18.246094 9.429688 18.234375 9.398438 18.210938 9.378906 Z M 17.472656 9.167969 C 17.386719 9.167969 17.300781 9.132812 17.238281 9.058594 C 17.128906 8.941406 17.128906 8.753906 17.230469 8.632812 C 17.296875 8.558594 17.382812 8.519531 17.472656 8.519531 C 17.558594 8.519531 17.644531 8.554688 17.710938 8.625 C 17.816406 8.746094 17.816406 8.929688 17.714844 9.054688 C 17.652344 9.128906 17.5625 9.167969 17.472656 9.167969 Z M 17.472656 9.167969 "/><path style=" stroke:none;fill-rule:nonzero;fill:#020203;fill-opacity:1;" d="M 24.550781 13.863281 C 19.945312 14.105469 15.339844 14.347656 10.734375 14.589844 C 10.734375 13.851562 10.734375 13.113281 10.734375 12.371094 C 15.339844 11.777344 19.945312 11.179688 24.550781 10.585938 C 24.550781 11.679688 24.550781 12.769531 24.550781 13.863281 Z M 24.550781 13.863281 "/><path style=" stroke:none;fill-rule:nonzero;fill:#020203;fill-opacity:1;" d="M 24.550781 17.984375 C 19.945312 17.785156 15.339844 17.582031 10.734375 17.382812 C 10.734375 16.644531 10.734375 15.902344 10.734375 15.164062 C 15.339844 15.011719 19.945312 14.859375 24.550781 14.707031 C 24.550781 15.800781 24.550781 16.890625 24.550781 17.984375 Z M 24.550781 17.984375 "/><path style=" stroke:none;fill-rule:nonzero;fill:#020203;fill-opacity:1;" d="M 24.550781 22.175781 C 19.945312 21.523438 15.339844 20.875 10.734375 20.222656 C 10.734375 19.484375 10.734375 18.742188 10.734375 18.003906 C 15.339844 18.300781 19.945312 18.601562 24.550781 18.898438 C 24.550781 19.992188 24.550781 21.085938 24.550781 22.175781 Z M 24.550781 22.175781 "/><path style=" stroke:none;fill-rule:nonzero;fill:#ffffff;fill-opacity:1;" d="M 24.140625 13.429688 C 19.535156 13.722656 14.929688 14.015625 10.324219 14.304688 C 10.324219 13.578125 10.324219 12.847656 10.324219 12.117188 C 14.929688 11.472656 19.535156 10.828125 24.140625 10.183594 C 24.140625 11.265625 24.140625 12.347656 24.140625 13.429688 Z M 24.140625 13.429688 "/><path style=" stroke:none;fill-rule:nonzero;fill:#020203;fill-opacity:1;" d="M 10.277344 14.359375 L 10.277344 12.074219 L 24.191406 10.125 L 24.191406 13.476562 Z M 10.375 12.160156 L 10.375 14.253906 L 24.09375 13.382812 L 24.09375 10.242188 Z M 10.375 12.160156 "/><path style=" stroke:none;fill-rule:nonzero;fill:#ffffff;fill-opacity:1;" d="M 24.140625 17.511719 C 19.535156 17.359375 14.929688 17.210938 10.324219 17.058594 C 10.324219 16.328125 10.324219 15.601562 10.324219 14.871094 C 14.929688 14.667969 19.535156 14.46875 24.140625 14.265625 C 24.140625 15.347656 24.140625 16.429688 24.140625 17.511719 Z M 24.140625 17.511719 "/><path style=" stroke:none;fill-rule:nonzero;fill:#020203;fill-opacity:1;" d="M 24.191406 17.5625 L 24.140625 17.558594 L 10.277344 17.105469 L 10.277344 14.824219 L 10.324219 14.820312 L 24.191406 14.214844 Z M 10.375 17.011719 L 24.09375 17.460938 L 24.09375 14.316406 L 10.375 14.917969 Z M 10.375 17.011719 "/><path style=" stroke:none;fill-rule:nonzero;fill:#020203;fill-opacity:1;" d="M 12.0625 13.316406 C 11.742188 13.34375 11.421875 13.375 11.101562 13.40625 C 11.101562 13.375 11.101562 13.34375 11.101562 13.3125 C 11.421875 13.28125 11.742188 13.253906 12.0625 13.222656 C 12.0625 13.253906 12.0625 13.285156 12.0625 13.316406 Z M 12.0625 13.316406 "/><path style=" stroke:none;fill-rule:nonzero;fill:#020203;fill-opacity:1;" d="M 15.574219 12.992188 C 14.597656 13.082031 13.617188 13.171875 12.640625 13.261719 C 12.640625 13.230469 12.640625 13.199219 12.640625 13.167969 C 13.617188 13.074219 14.597656 12.980469 15.574219 12.886719 C 15.574219 12.921875 15.574219 12.957031 15.574219 12.992188 Z M 15.574219 12.992188 "/><path style=" stroke:none;fill-rule:nonzero;fill:#020203;fill-opacity:1;" d="M 20.84375 12.503906 C 19.253906 12.652344 17.660156 12.796875 16.070312 12.945312 C 16.070312 12.910156 16.070312 12.875 16.070312 12.839844 C 17.660156 12.6875 19.253906 12.535156 20.84375 12.382812 C 20.84375 12.421875 20.84375 12.464844 20.84375 12.503906 Z M 20.84375 12.503906 "/><path style=" stroke:none;fill-rule:nonzero;fill:#020203;fill-opacity:1;" d="M 23.558594 12.253906 C 22.8125 12.320312 22.066406 12.390625 21.320312 12.460938 C 21.320312 12.417969 21.320312 12.378906 21.320312 12.335938 C 22.066406 12.265625 22.8125 12.195312 23.558594 12.125 C 23.558594 12.164062 23.558594 12.210938 23.558594 12.253906 Z M 23.558594 12.253906 "/><path style=" stroke:none;fill-rule:nonzero;fill:#020203;fill-opacity:1;" d="M 17.578125 13.261719 C 15.417969 13.433594 13.257812 13.605469 11.101562 13.78125 C 11.101562 13.75 11.101562 13.71875 11.101562 13.6875 C 13.257812 13.507812 15.417969 13.332031 17.578125 13.152344 C 17.578125 13.1875 17.578125 13.226562 17.578125 13.261719 Z M 17.578125 13.261719 "/><path style=" stroke:none;fill-rule:nonzero;fill:#020203;fill-opacity:1;" d="M 20.46875 13.03125 C 19.640625 13.097656 18.8125 13.164062 17.980469 13.230469 C 17.980469 13.191406 17.980469 13.15625 17.980469 13.117188 C 18.8125 13.050781 19.640625 12.980469 20.46875 12.914062 C 20.46875 12.953125 20.46875 12.992188 20.46875 13.03125 Z M 20.46875 13.03125 "/><path style=" stroke:none;fill-rule:nonzero;fill:#020203;fill-opacity:1;" d="M 22.789062 12.847656 C 22.089844 12.902344 21.394531 12.957031 20.695312 13.015625 C 20.695312 12.972656 20.695312 12.933594 20.695312 12.894531 C 21.394531 12.835938 22.089844 12.777344 22.789062 12.71875 C 22.789062 12.761719 22.789062 12.804688 22.789062 12.847656 Z M 22.789062 12.847656 "/><path style=" stroke:none;fill-rule:nonzero;fill:#f9af29;fill-opacity:1;" d="M 22.738281 11.523438 C 18.859375 11.960938 14.980469 12.394531 11.101562 12.828125 C 11.101562 12.714844 11.101562 12.601562 11.101562 12.492188 C 14.980469 12.011719 18.859375 11.53125 22.738281 11.050781 C 22.738281 11.207031 22.738281 11.367188 22.738281 11.523438 Z M 22.738281 11.523438 "/><path style=" stroke:none;fill-rule:nonzero;fill:#020203;fill-opacity:1;" d="M 17.847656 16.21875 C 15.597656 16.210938 13.351562 16.207031 11.101562 16.199219 C 11.101562 16.171875 11.101562 16.140625 11.101562 16.109375 C 13.351562 16.109375 15.597656 16.109375 17.847656 16.105469 C 17.847656 16.144531 17.847656 16.179688 17.847656 16.21875 Z M 17.847656 16.21875 "/><path style=" stroke:none;fill-rule:nonzero;fill:#020203;fill-opacity:1;" d="M 21.636719 16.230469 C 20.464844 16.226562 19.296875 16.222656 18.128906 16.21875 C 18.128906 16.183594 18.128906 16.144531 18.128906 16.105469 C 19.296875 16.105469 20.464844 16.105469 21.636719 16.105469 C 21.636719 16.144531 21.636719 16.1875 21.636719 16.230469 Z M 21.636719 16.230469 "/><path style=" stroke:none;fill-rule:nonzero;fill:#020203;fill-opacity:1;" d="M 12.234375 16.59375 C 11.855469 16.585938 11.480469 16.582031 11.101562 16.574219 C 11.101562 16.542969 11.101562 16.515625 11.101562 16.484375 C 11.480469 16.488281 11.855469 16.492188 12.234375 16.496094 C 12.234375 16.53125 12.234375 16.5625 12.234375 16.59375 Z M 12.234375 16.59375 "/><path style=" stroke:none;fill-rule:nonzero;fill:#020203;fill-opacity:1;" d="M 17.125 16.667969 C 15.691406 16.644531 14.257812 16.625 12.820312 16.601562 C 12.820312 16.570312 12.820312 16.539062 12.820312 16.503906 C 14.257812 16.523438 15.691406 16.539062 17.125 16.558594 C 17.125 16.59375 17.125 16.632812 17.125 16.667969 Z M 17.125 16.667969 "/><path style=" stroke:none;fill-rule:nonzero;fill:#020203;fill-opacity:1;" d="M 22.558594 16.75 C 20.828125 16.726562 19.09375 16.699219 17.363281 16.671875 C 17.363281 16.632812 17.363281 16.597656 17.363281 16.5625 C 19.09375 16.582031 20.828125 16.605469 22.558594 16.625 C 22.558594 16.667969 22.558594 16.710938 22.558594 16.75 Z M 22.558594 16.75 "/><path style=" stroke:none;fill-rule:nonzero;fill:#f9af29;fill-opacity:1;" d="M 20.609375 15.464844 C 17.441406 15.515625 14.269531 15.570312 11.101562 15.625 C 11.101562 15.511719 11.101562 15.398438 11.101562 15.285156 C 14.269531 15.195312 17.441406 15.105469 20.609375 15.015625 C 20.609375 15.164062 20.609375 15.3125 20.609375 15.464844 Z M 20.609375 15.464844 "/><path style=" stroke:none;fill-rule:nonzero;fill:#ffffff;fill-opacity:1;" d="M 24.140625 21.664062 C 19.535156 21.0625 14.929688 20.460938 10.324219 19.859375 C 10.324219 19.128906 10.324219 18.398438 10.324219 17.671875 C 14.929688 17.917969 19.535156 18.167969 24.140625 18.417969 C 24.140625 19.5 24.140625 20.582031 24.140625 21.664062 Z M 24.140625 21.664062 "/><path style=" stroke:none;fill-rule:nonzero;fill:#020203;fill-opacity:1;" d="M 24.191406 21.71875 L 24.136719 21.710938 L 10.320312 19.90625 L 10.277344 19.902344 L 10.277344 17.617188 L 24.191406 18.371094 Z M 10.375 19.816406 L 24.09375 21.605469 L 24.09375 18.464844 L 10.375 17.722656 Z M 10.375 19.816406 "/><path style=" stroke:none;fill-rule:nonzero;fill:#020203;fill-opacity:1;" d="M 16.6875 19.636719 C 14.828125 19.449219 12.964844 19.265625 11.101562 19.078125 C 11.101562 19.046875 11.101562 19.015625 11.101562 18.984375 C 12.964844 19.167969 14.828125 19.347656 16.6875 19.53125 C 16.6875 19.566406 16.6875 19.601562 16.6875 19.636719 Z M 16.6875 19.636719 "/><path style=" stroke:none;fill-rule:nonzero;fill:#020203;fill-opacity:1;" d="M 21.636719 20.136719 C 20.078125 19.980469 18.523438 19.824219 16.96875 19.667969 C 16.96875 19.628906 16.96875 19.59375 16.96875 19.558594 C 18.523438 19.710938 20.078125 19.859375 21.636719 20.011719 C 21.636719 20.054688 21.636719 20.09375 21.636719 20.136719 Z M 21.636719 20.136719 "/><path style=" stroke:none;fill-rule:nonzero;fill:#020203;fill-opacity:1;" d="M 13.148438 19.683594 C 12.464844 19.605469 11.785156 19.527344 11.101562 19.449219 C 11.101562 19.421875 11.101562 19.390625 11.101562 19.359375 C 11.785156 19.433594 12.464844 19.511719 13.148438 19.585938 C 13.148438 19.617188 13.148438 19.648438 13.148438 19.683594 Z M 13.148438 19.683594 "/><path style=" stroke:none;fill-rule:nonzero;fill:#020203;fill-opacity:1;" d="M 18.105469 20.246094 C 16.648438 20.078125 15.191406 19.914062 13.738281 19.75 C 13.738281 19.714844 13.738281 19.683594 13.738281 19.648438 C 15.191406 19.8125 16.648438 19.972656 18.105469 20.132812 C 18.105469 20.167969 18.105469 20.207031 18.105469 20.246094 Z M 18.105469 20.246094 "/><path style=" stroke:none;fill-rule:nonzero;fill:#020203;fill-opacity:1;" d="M 22.992188 20.796875 C 21.441406 20.621094 19.894531 20.445312 18.34375 20.269531 C 18.34375 20.234375 18.34375 20.195312 18.34375 20.15625 C 19.894531 20.328125 21.441406 20.5 22.992188 20.671875 C 22.992188 20.714844 22.992188 20.757812 22.992188 20.796875 Z M 22.992188 20.796875 "/><path style=" stroke:none;fill-rule:nonzero;fill:#f9af29;fill-opacity:1;" d="M 21.769531 19.363281 C 18.214844 19.078125 14.65625 18.789062 11.101562 18.5 C 11.101562 18.386719 11.101562 18.273438 11.101562 18.160156 C 14.65625 18.410156 18.214844 18.65625 21.769531 18.902344 C 21.769531 19.054688 21.769531 19.210938 21.769531 19.363281 Z M 21.769531 19.363281 "/><g clip-rule="nonzero" clip-path="url(#3ff46c02f9)"><path style=" stroke:none;fill-rule:nonzero;fill:#020203;fill-opacity:1;" d="M 25.296875 13.179688 L 21.863281 11.75 C 21.773438 11.714844 21.664062 11.820312 21.695312 11.914062 L 22.953125 15.46875 C 22.976562 15.539062 23.066406 15.546875 23.128906 15.484375 L 23.632812 14.992188 C 23.683594 14.945312 23.753906 14.9375 23.789062 14.980469 L 25.4375 16.730469 C 25.476562 16.769531 25.546875 16.765625 25.597656 16.71875 L 26.410156 15.921875 C 26.457031 15.875 26.46875 15.800781 26.429688 15.761719 L 24.78125 14.011719 C 24.742188 13.96875 24.75 13.898438 24.800781 13.851562 L 25.304688 13.359375 C 25.367188 13.300781 25.359375 13.207031 25.296875 13.179688 Z M 25.296875 13.179688 "/><path style=" stroke:none;fill-rule:nonzero;fill:#ffffff;fill-opacity:1;" d="M 25.394531 12.679688 L 21.960938 11.25 C 21.875 11.214844 21.761719 11.324219 21.796875 11.414062 L 23.054688 14.972656 C 23.078125 15.039062 23.167969 15.046875 23.230469 14.988281 L 23.734375 14.496094 C 23.78125 14.445312 23.851562 14.441406 23.890625 14.480469 L 25.539062 16.234375 C 25.578125 16.273438 25.648438 16.265625 25.695312 16.21875 L 26.511719 15.421875 C 26.558594 15.375 26.566406 15.304688 26.53125 15.261719 L 24.882812 13.511719 C 24.84375 13.472656 24.851562 13.398438 24.902344 13.351562 L 25.40625 12.859375 C 25.464844 12.800781 25.460938 12.707031 25.394531 12.679688 Z M 25.394531 12.679688 "/><path style=" stroke:none;fill-rule:nonzero;fill:#020203;fill-opacity:1;" d="M 25.605469 16.308594 C 25.566406 16.308594 25.53125 16.292969 25.503906 16.265625 L 23.855469 14.515625 C 23.84375 14.503906 23.828125 14.503906 23.820312 14.503906 C 23.800781 14.507812 23.78125 14.515625 23.765625 14.53125 L 23.261719 15.023438 C 23.21875 15.066406 23.15625 15.085938 23.101562 15.074219 C 23.058594 15.0625 23.023438 15.03125 23.007812 14.988281 L 21.75 11.433594 C 21.726562 11.371094 21.746094 11.300781 21.800781 11.25 C 21.851562 11.199219 21.921875 11.179688 21.980469 11.207031 L 25.414062 12.636719 C 25.457031 12.652344 25.484375 12.6875 25.496094 12.734375 C 25.503906 12.789062 25.484375 12.851562 25.4375 12.894531 L 24.933594 13.386719 C 24.90625 13.417969 24.898438 13.457031 24.917969 13.476562 L 26.566406 15.230469 C 26.59375 15.257812 26.605469 15.300781 26.601562 15.347656 C 26.597656 15.386719 26.574219 15.429688 26.542969 15.460938 L 25.730469 16.253906 C 25.695312 16.289062 25.648438 16.308594 25.605469 16.308594 Z M 23.824219 14.40625 C 23.863281 14.40625 23.898438 14.417969 23.925781 14.445312 L 25.574219 16.199219 C 25.59375 16.21875 25.632812 16.210938 25.664062 16.183594 L 26.476562 15.386719 C 26.492188 15.371094 26.5 15.351562 26.503906 15.335938 C 26.503906 15.324219 26.503906 15.308594 26.496094 15.296875 L 24.847656 13.546875 C 24.789062 13.488281 24.800781 13.382812 24.867188 13.316406 L 25.371094 12.824219 C 25.390625 12.804688 25.402344 12.777344 25.398438 12.753906 C 25.394531 12.742188 25.390625 12.730469 25.378906 12.726562 L 21.945312 11.296875 C 21.917969 11.285156 21.886719 11.304688 21.867188 11.320312 C 21.847656 11.339844 21.832031 11.371094 21.839844 11.398438 L 23.101562 14.953125 C 23.105469 14.964844 23.113281 14.972656 23.125 14.976562 C 23.148438 14.980469 23.175781 14.972656 23.195312 14.953125 L 23.699219 14.460938 C 23.730469 14.429688 23.769531 14.410156 23.8125 14.40625 C 23.816406 14.40625 23.820312 14.40625 23.824219 14.40625 Z M 23.824219 14.40625 "/></g></g></svg>