<svg xmlns="http://www.w3.org/2000/svg" xmlns:xlink="http://www.w3.org/1999/xlink" width="40" zoomAndPan="magnify" viewBox="0 0 30 30.000001" height="40" preserveAspectRatio="xMidYMid meet" version="1.2"><defs><clipPath id="57beec506e"><path d="M 2.660156 4 L 27 4 L 27 25 L 2.660156 25 Z M 2.660156 4 "/></clipPath><clipPath id="4aad511b07"><path d="M 2.660156 4 L 27 4 L 27 9 L 2.660156 9 Z M 2.660156 4 "/></clipPath><clipPath id="7c0bee3895"><path d="M 22 20 L 28.066406 20 L 28.066406 27 L 22 27 Z M 22 20 "/></clipPath></defs><g id="8d8f75ebb9"><g clip-rule="nonzero" clip-path="url(#57beec506e)"><path style=" stroke:none;fill-rule:evenodd;fill:#ffd15c;fill-opacity:1;" d="M 24.238281 23.949219 C 24.253906 24.128906 24.132812 24.339844 23.894531 24.339844 L 4.417969 24.339844 C 3.449219 24.339844 2.660156 23.550781 2.660156 22.582031 L 2.660156 6.335938 C 2.660156 5.367188 3.449219 4.578125 4.417969 4.578125 L 25.027344 4.578125 C 25.996094 4.578125 26.785156 5.367188 26.785156 6.335938 L 26.785156 22.253906 C 26.785156 22.582031 26.425781 22.671875 26.234375 22.523438 C 25.816406 22.9375 24.980469 23.699219 24.238281 23.949219 Z M 24.238281 23.949219 "/></g><path style=" stroke:none;fill-rule:evenodd;fill:#ff893d;fill-opacity:1;" d="M 6.769531 14.285156 L 6.742188 14.316406 L 6.472656 14.035156 C 5.28125 12.84375 6.128906 10.816406 7.796875 10.816406 C 8.960938 10.816406 10.105469 10.800781 11.269531 10.800781 C 12.042969 10.800781 12.832031 10.800781 13.605469 10.800781 C 13.890625 10.800781 14.15625 10.816406 14.441406 10.816406 C 14.574219 10.816406 14.765625 10.816406 14.902344 10.847656 C 14.976562 10.863281 15.050781 10.890625 15.109375 10.953125 C 15.4375 11.21875 15.230469 11.695312 15.09375 12.007812 C 14.917969 12.382812 14.691406 12.753906 14.453125 13.097656 C 14.246094 13.421875 14.007812 13.765625 13.738281 14.046875 C 13.546875 14.273438 13.261719 14.585938 12.9375 14.585938 L 7.796875 14.585938 C 7.425781 14.585938 7.082031 14.480469 6.769531 14.285156 Z M 6.769531 14.285156 "/><path style=" stroke:none;fill-rule:nonzero;fill:#e6e6e6;fill-opacity:1;" d="M 5.890625 7.066406 C 5.429688 7.066406 5.429688 6.378906 5.890625 6.378906 L 14.574219 6.378906 C 15.035156 6.378906 15.035156 7.066406 14.574219 7.066406 Z M 5.890625 7.066406 "/><path style=" stroke:none;fill-rule:nonzero;fill:#e6e6e6;fill-opacity:1;" d="M 19.605469 7.066406 C 19.144531 7.066406 19.144531 6.378906 19.605469 6.378906 L 23.550781 6.378906 C 24.015625 6.378906 24.015625 7.066406 23.550781 7.066406 Z M 19.605469 7.066406 "/><path style=" stroke:none;fill-rule:evenodd;fill:#47caf2;fill-opacity:1;" d="M 12.9375 14.183594 L 7.796875 14.183594 C 7.394531 14.183594 7.023438 14.019531 6.742188 13.75 C 5.804688 12.8125 6.488281 11.203125 7.796875 11.203125 C 8.664062 11.203125 14.46875 11.175781 14.828125 11.234375 C 15.273438 11.324219 13.398438 14.183594 12.9375 14.183594 Z M 12.9375 14.183594 "/><path style=" stroke:none;fill-rule:nonzero;fill:#1f436d;fill-opacity:1;" d="M 23.539062 19.664062 L 24.59375 20.71875 C 24.730469 20.855469 24.730469 21.078125 24.59375 21.210938 L 23.269531 22.535156 C 23.136719 22.671875 22.914062 22.671875 22.777344 22.535156 L 21.722656 21.480469 C 21.394531 21.152344 21.855469 20.898438 22.078125 20.703125 L 22.375 20.4375 L 22.464844 20.363281 L 23.015625 19.707031 C 23.136719 19.542969 23.390625 19.527344 23.539062 19.675781 Z M 23.539062 19.664062 "/><g clip-rule="nonzero" clip-path="url(#4aad511b07)"><path style=" stroke:none;fill-rule:evenodd;fill:#1f436d;fill-opacity:1;" d="M 4.417969 4.578125 C 3.449219 4.578125 2.660156 5.367188 2.660156 6.335938 L 2.660156 8.183594 L 26.785156 8.183594 L 26.785156 6.335938 C 26.785156 5.367188 25.996094 4.578125 25.027344 4.578125 Z M 5.890625 6.378906 L 14.574219 6.378906 C 15.035156 6.378906 15.035156 7.066406 14.574219 7.066406 L 5.890625 7.066406 C 5.429688 7.066406 5.429688 6.378906 5.890625 6.378906 Z M 19.605469 7.066406 C 19.144531 7.066406 19.144531 6.378906 19.605469 6.378906 L 23.550781 6.378906 C 24.015625 6.378906 24.015625 7.066406 23.550781 7.066406 Z M 19.605469 7.066406 "/></g><path style=" stroke:none;fill-rule:nonzero;fill:#f96332;fill-opacity:1;" d="M 13.902344 11.859375 C 16.40625 9.375 20.441406 9.375 22.925781 11.859375 C 25.414062 14.347656 25.414062 18.382812 22.925781 20.867188 C 20.441406 23.371094 16.40625 23.371094 13.902344 20.867188 C 11.417969 18.382812 11.417969 14.347656 13.902344 11.859375 Z M 13.902344 11.859375 "/><path style=" stroke:none;fill-rule:nonzero;fill:#b64825;fill-opacity:1;" d="M 14.722656 12.679688 C 18 9.402344 23.628906 11.742188 23.628906 16.371094 C 23.628906 20.988281 18 23.324219 14.722656 20.050781 C 12.699219 18.007812 12.699219 14.71875 14.722656 12.679688 Z M 14.722656 12.679688 "/><path style=" stroke:none;fill-rule:nonzero;fill:#47caf2;fill-opacity:1;" d="M 15.003906 12.960938 C 18.027344 9.9375 23.238281 12.082031 23.238281 16.371094 C 23.238281 20.644531 18.027344 22.804688 15.003906 19.765625 C 13.128906 17.890625 13.128906 14.839844 15.003906 12.960938 Z M 15.003906 12.960938 "/><g clip-rule="nonzero" clip-path="url(#7c0bee3895)"><path style=" stroke:none;fill-rule:nonzero;fill:#f96332;fill-opacity:1;" d="M 22.363281 22.460938 L 24.503906 20.316406 C 24.640625 20.183594 24.863281 20.183594 24.996094 20.316406 L 27.527344 22.835938 C 27.886719 23.207031 28.066406 23.683594 28.066406 24.160156 C 28.066406 25.828125 26.054688 26.632812 24.894531 25.46875 L 22.363281 22.953125 C 22.226562 22.820312 22.226562 22.597656 22.363281 22.460938 Z M 22.363281 22.460938 "/></g><path style=" stroke:none;fill-rule:nonzero;fill:#152c47;fill-opacity:1;" d="M 16.390625 18.769531 C 16.851562 18.695312 16.957031 19.378906 16.507812 19.453125 C 16.507812 19.453125 15.496094 19.632812 15.46875 18.621094 C 15.46875 18.605469 15.46875 18.605469 15.46875 18.589844 C 15.496094 18.351562 15.46875 17.695312 15.347656 17.191406 C 15.304688 16.96875 15.257812 16.789062 15.242188 16.789062 C 14.945312 16.714844 14.839844 16.265625 15.242188 16.117188 C 15.257812 16.117188 15.304688 15.941406 15.347656 15.714844 C 15.511719 15 15.453125 14.570312 15.480469 14.257812 C 15.511719 13.289062 16.507812 13.453125 16.507812 13.453125 C 16.941406 13.527344 16.867188 14.199219 16.390625 14.136719 C 15.972656 14.078125 16.316406 14.601562 16.019531 15.878906 C 15.972656 16.089844 15.898438 16.296875 15.808594 16.460938 C 16.167969 17.042969 16.167969 18.171875 16.167969 18.621094 C 16.183594 18.8125 16.390625 18.769531 16.390625 18.769531 Z M 16.390625 18.769531 "/><path style=" stroke:none;fill-rule:nonzero;fill:#152c47;fill-opacity:1;" d="M 20.367188 19.453125 C 19.933594 19.378906 20.007812 18.710938 20.484375 18.769531 C 20.902344 18.828125 20.558594 18.308594 20.859375 17.042969 C 20.902344 16.820312 20.976562 16.609375 21.066406 16.460938 C 20.722656 15.867188 20.707031 14.734375 20.707031 14.285156 C 20.707031 13.972656 20.15625 14.332031 20.082031 13.855469 C 19.980469 13.183594 21.484375 13.289062 21.410156 14.316406 C 21.394531 14.554688 21.410156 15.226562 21.527344 15.714844 C 21.570312 15.941406 21.617188 16.117188 21.632812 16.117188 C 22.035156 16.265625 21.929688 16.714844 21.632812 16.789062 C 21.617188 16.789062 21.570312 16.96875 21.527344 17.191406 C 21.410156 17.695312 21.394531 18.351562 21.410156 18.589844 C 21.410156 18.605469 21.410156 18.605469 21.410156 18.621094 C 21.378906 19.632812 20.367188 19.453125 20.367188 19.453125 Z M 20.367188 19.453125 "/><path style=" stroke:none;fill-rule:nonzero;fill:#152c47;fill-opacity:1;" d="M 16.984375 15.539062 C 16.523438 15.539062 16.523438 14.839844 16.984375 14.839844 L 19.890625 14.839844 C 20.351562 14.839844 20.351562 15.539062 19.890625 15.539062 Z M 16.984375 15.539062 "/><path style=" stroke:none;fill-rule:nonzero;fill:#152c47;fill-opacity:1;" d="M 16.984375 16.804688 C 16.523438 16.804688 16.523438 16.105469 16.984375 16.105469 L 19.890625 16.105469 C 20.351562 16.105469 20.351562 16.804688 19.890625 16.804688 Z M 16.984375 16.804688 "/><path style=" stroke:none;fill-rule:nonzero;fill:#152c47;fill-opacity:1;" d="M 16.984375 18.070312 C 16.523438 18.070312 16.523438 17.371094 16.984375 17.371094 L 19.890625 17.371094 C 20.351562 17.371094 20.351562 18.070312 19.890625 18.070312 Z M 16.984375 18.070312 "/><path style=" stroke:none;fill-rule:evenodd;fill:#1f436d;fill-opacity:1;" d="M 9.660156 18.738281 C 9.347656 19.050781 8.855469 18.5625 9.167969 18.246094 L 10.003906 17.414062 L 9.167969 16.59375 C 8.855469 16.28125 9.347656 15.789062 9.660156 16.105469 L 10.730469 17.175781 C 10.867188 17.308594 10.867188 17.53125 10.730469 17.667969 Z M 9.660156 18.738281 "/><path style=" stroke:none;fill-rule:evenodd;fill:#1f436d;fill-opacity:1;" d="M 8.050781 15.761719 C 8.171875 15.328125 8.839844 15.507812 8.722656 15.941406 L 7.871094 19.082031 C 7.753906 19.511719 7.082031 19.335938 7.203125 18.902344 Z M 8.050781 15.761719 "/><path style=" stroke:none;fill-rule:evenodd;fill:#1f436d;fill-opacity:1;" d="M 6.191406 18.246094 C 6.519531 18.5625 6.027344 19.050781 5.699219 18.738281 L 4.625 17.667969 C 4.492188 17.53125 4.492188 17.308594 4.625 17.175781 L 5.699219 16.105469 C 6.027344 15.789062 6.519531 16.28125 6.191406 16.59375 L 5.371094 17.414062 Z M 6.191406 18.246094 "/><path style=" stroke:none;fill-rule:evenodd;fill:#1f436d;fill-opacity:1;" d="M 4.820312 20.839844 C 4.359375 20.839844 4.359375 20.140625 4.820312 20.140625 L 11.386719 20.140625 C 11.832031 20.140625 11.832031 20.839844 11.386719 20.839844 Z M 4.820312 20.839844 "/><path style=" stroke:none;fill-rule:evenodd;fill:#1f436d;fill-opacity:1;" d="M 4.820312 22.328125 C 4.359375 22.328125 4.359375 21.644531 4.820312 21.644531 L 11.386719 21.644531 C 11.832031 21.644531 11.832031 22.328125 11.386719 22.328125 Z M 4.820312 22.328125 "/></g></svg>