<svg xmlns="http://www.w3.org/2000/svg" xmlns:xlink="http://www.w3.org/1999/xlink" width="40" zoomAndPan="magnify" viewBox="0 0 30 30.000001" height="40" preserveAspectRatio="xMidYMid meet" version="1.2"><defs><clipPath id="3c8f170c65"><path d="M 4.039062 5 L 26 5 L 26 24 L 4.039062 24 Z M 4.039062 5 "/></clipPath><clipPath id="0001eec7f8"><path d="M 4.039062 5 L 26 5 L 26 9 L 4.039062 9 Z M 4.039062 5 "/></clipPath><clipPath id="e748ce976b"><path d="M 21 19 L 26.539062 19 L 26.539062 25 L 21 25 Z M 21 19 "/></clipPath></defs><g id="84dc1c1891"><g clip-rule="nonzero" clip-path="url(#3c8f170c65)"><path style=" stroke:none;fill-rule:evenodd;fill:#ffd15c;fill-opacity:1;" d="M 23.152344 22.925781 C 23.164062 23.082031 23.058594 23.265625 22.847656 23.265625 L 5.597656 23.265625 C 4.738281 23.265625 4.039062 22.570312 4.039062 21.710938 L 4.039062 7.320312 C 4.039062 6.464844 4.738281 5.765625 5.597656 5.765625 L 23.851562 5.765625 C 24.707031 5.765625 25.40625 6.464844 25.40625 7.320312 L 25.40625 21.421875 C 25.40625 21.710938 25.089844 21.789062 24.917969 21.660156 C 24.546875 22.027344 23.808594 22.699219 23.152344 22.925781 Z M 23.152344 22.925781 "/></g><path style=" stroke:none;fill-rule:evenodd;fill:#ff893d;fill-opacity:1;" d="M 7.679688 14.363281 L 7.652344 14.390625 L 7.417969 14.140625 C 6.363281 13.085938 7.113281 11.292969 8.589844 11.292969 C 9.621094 11.292969 10.632812 11.277344 11.664062 11.277344 C 12.347656 11.277344 13.046875 11.277344 13.734375 11.277344 C 13.984375 11.277344 14.222656 11.292969 14.472656 11.292969 C 14.589844 11.292969 14.761719 11.292969 14.882812 11.320312 C 14.949219 11.332031 15.011719 11.359375 15.066406 11.410156 C 15.355469 11.648438 15.171875 12.070312 15.054688 12.347656 C 14.894531 12.675781 14.695312 13.007812 14.484375 13.308594 C 14.300781 13.601562 14.089844 13.902344 13.851562 14.152344 C 13.679688 14.351562 13.429688 14.628906 13.140625 14.628906 L 8.589844 14.628906 C 8.261719 14.628906 7.957031 14.535156 7.679688 14.363281 Z M 7.679688 14.363281 "/><path style=" stroke:none;fill-rule:nonzero;fill:#e6e6e6;fill-opacity:1;" d="M 6.902344 7.96875 C 6.492188 7.96875 6.492188 7.363281 6.902344 7.363281 L 14.589844 7.363281 C 15 7.363281 15 7.96875 14.589844 7.96875 Z M 6.902344 7.96875 "/><path style=" stroke:none;fill-rule:nonzero;fill:#e6e6e6;fill-opacity:1;" d="M 19.050781 7.96875 C 18.640625 7.96875 18.640625 7.363281 19.050781 7.363281 L 22.542969 7.363281 C 22.953125 7.363281 22.953125 7.96875 22.542969 7.96875 Z M 19.050781 7.96875 "/><path style=" stroke:none;fill-rule:evenodd;fill:#47caf2;fill-opacity:1;" d="M 13.140625 14.273438 L 8.589844 14.273438 C 8.234375 14.273438 7.90625 14.128906 7.652344 13.890625 C 6.824219 13.058594 7.429688 11.636719 8.589844 11.636719 C 9.355469 11.636719 14.5 11.609375 14.816406 11.660156 C 15.210938 11.742188 13.550781 14.273438 13.140625 14.273438 Z M 13.140625 14.273438 "/><path style=" stroke:none;fill-rule:nonzero;fill:#1f436d;fill-opacity:1;" d="M 22.53125 19.125 L 23.46875 20.0625 C 23.585938 20.179688 23.585938 20.378906 23.46875 20.496094 L 22.292969 21.671875 C 22.175781 21.789062 21.976562 21.789062 21.859375 21.671875 L 20.921875 20.734375 C 20.632812 20.445312 21.039062 20.222656 21.238281 20.050781 L 21.503906 19.8125 L 21.582031 19.746094 L 22.070312 19.164062 C 22.175781 19.019531 22.398438 19.007812 22.53125 19.140625 Z M 22.53125 19.125 "/><g clip-rule="nonzero" clip-path="url(#0001eec7f8)"><path style=" stroke:none;fill-rule:evenodd;fill:#1f436d;fill-opacity:1;" d="M 5.597656 5.765625 C 4.738281 5.765625 4.039062 6.464844 4.039062 7.320312 L 4.039062 8.957031 L 25.40625 8.957031 L 25.40625 7.320312 C 25.40625 6.464844 24.707031 5.765625 23.851562 5.765625 Z M 6.902344 7.363281 L 14.589844 7.363281 C 15 7.363281 15 7.96875 14.589844 7.96875 L 6.902344 7.96875 C 6.492188 7.96875 6.492188 7.363281 6.902344 7.363281 Z M 19.050781 7.96875 C 18.640625 7.96875 18.640625 7.363281 19.050781 7.363281 L 22.542969 7.363281 C 22.953125 7.363281 22.953125 7.96875 22.542969 7.96875 Z M 19.050781 7.96875 "/></g><path style=" stroke:none;fill-rule:nonzero;fill:#f96332;fill-opacity:1;" d="M 13.996094 12.214844 C 16.214844 10.011719 19.789062 10.011719 21.988281 12.214844 C 24.191406 14.417969 24.191406 17.992188 21.988281 20.195312 C 19.789062 22.410156 16.214844 22.410156 13.996094 20.195312 C 11.796875 17.992188 11.796875 14.417969 13.996094 12.214844 Z M 13.996094 12.214844 "/><path style=" stroke:none;fill-rule:nonzero;fill:#b64825;fill-opacity:1;" d="M 14.722656 12.941406 C 17.625 10.039062 22.609375 12.109375 22.609375 16.210938 C 22.609375 20.300781 17.625 22.371094 14.722656 19.46875 C 12.929688 17.664062 12.929688 14.746094 14.722656 12.941406 Z M 14.722656 12.941406 "/><path style=" stroke:none;fill-rule:nonzero;fill:#47caf2;fill-opacity:1;" d="M 14.972656 13.191406 C 17.652344 10.515625 22.265625 12.414062 22.265625 16.210938 C 22.265625 19.996094 17.652344 21.910156 14.972656 19.21875 C 13.3125 17.558594 13.3125 14.851562 14.972656 13.191406 Z M 14.972656 13.191406 "/><g clip-rule="nonzero" clip-path="url(#e748ce976b)"><path style=" stroke:none;fill-rule:nonzero;fill:#f96332;fill-opacity:1;" d="M 21.488281 21.605469 L 23.386719 19.707031 C 23.507812 19.585938 23.703125 19.585938 23.824219 19.707031 L 26.066406 21.933594 C 26.382812 22.265625 26.539062 22.6875 26.539062 23.109375 C 26.539062 24.585938 24.761719 25.296875 23.730469 24.269531 L 21.488281 22.039062 C 21.371094 21.921875 21.371094 21.722656 21.488281 21.605469 Z M 21.488281 21.605469 "/></g><path style=" stroke:none;fill-rule:nonzero;fill:#152c47;fill-opacity:1;" d="M 16.199219 18.335938 C 16.609375 18.269531 16.703125 18.875 16.304688 18.941406 C 16.304688 18.941406 15.410156 19.101562 15.382812 18.203125 C 15.382812 18.191406 15.382812 18.191406 15.382812 18.175781 C 15.410156 17.964844 15.382812 17.386719 15.277344 16.9375 C 15.238281 16.738281 15.199219 16.582031 15.183594 16.582031 C 14.921875 16.515625 14.828125 16.121094 15.183594 15.988281 C 15.199219 15.988281 15.238281 15.828125 15.277344 15.632812 C 15.421875 15 15.371094 14.617188 15.394531 14.339844 C 15.421875 13.480469 16.304688 13.625 16.304688 13.625 C 16.6875 13.691406 16.621094 14.285156 16.199219 14.234375 C 15.832031 14.179688 16.132812 14.640625 15.871094 15.777344 C 15.832031 15.960938 15.765625 16.144531 15.6875 16.289062 C 16.003906 16.804688 16.003906 17.808594 16.003906 18.203125 C 16.015625 18.375 16.199219 18.335938 16.199219 18.335938 Z M 16.199219 18.335938 "/><path style=" stroke:none;fill-rule:nonzero;fill:#152c47;fill-opacity:1;" d="M 19.722656 18.941406 C 19.339844 18.875 19.40625 18.28125 19.828125 18.335938 C 20.195312 18.386719 19.894531 17.925781 20.15625 16.804688 C 20.195312 16.605469 20.261719 16.421875 20.339844 16.289062 C 20.039062 15.761719 20.023438 14.761719 20.023438 14.363281 C 20.023438 14.089844 19.535156 14.40625 19.472656 13.984375 C 19.378906 13.390625 20.710938 13.480469 20.644531 14.390625 C 20.632812 14.601562 20.644531 15.195312 20.75 15.632812 C 20.789062 15.828125 20.828125 15.988281 20.84375 15.988281 C 21.199219 16.121094 21.105469 16.515625 20.84375 16.582031 C 20.828125 16.582031 20.789062 16.738281 20.75 16.9375 C 20.644531 17.386719 20.632812 17.964844 20.644531 18.175781 C 20.644531 18.191406 20.644531 18.191406 20.644531 18.203125 C 20.617188 19.101562 19.722656 18.941406 19.722656 18.941406 Z M 19.722656 18.941406 "/><path style=" stroke:none;fill-rule:nonzero;fill:#152c47;fill-opacity:1;" d="M 16.726562 15.472656 C 16.320312 15.472656 16.320312 14.851562 16.726562 14.851562 L 19.300781 14.851562 C 19.707031 14.851562 19.707031 15.472656 19.300781 15.472656 Z M 16.726562 15.472656 "/><path style=" stroke:none;fill-rule:nonzero;fill:#152c47;fill-opacity:1;" d="M 16.726562 16.59375 C 16.320312 16.59375 16.320312 15.972656 16.726562 15.972656 L 19.300781 15.972656 C 19.707031 15.972656 19.707031 16.59375 19.300781 16.59375 Z M 16.726562 16.59375 "/><path style=" stroke:none;fill-rule:nonzero;fill:#152c47;fill-opacity:1;" d="M 16.726562 17.714844 C 16.320312 17.714844 16.320312 17.09375 16.726562 17.09375 L 19.300781 17.09375 C 19.707031 17.09375 19.707031 17.714844 19.300781 17.714844 Z M 16.726562 17.714844 "/><path style=" stroke:none;fill-rule:evenodd;fill:#1f436d;fill-opacity:1;" d="M 10.238281 18.308594 C 9.960938 18.585938 9.527344 18.148438 9.804688 17.875 L 10.542969 17.132812 L 9.804688 16.410156 C 9.527344 16.132812 9.960938 15.695312 10.238281 15.972656 L 11.1875 16.921875 C 11.308594 17.042969 11.308594 17.238281 11.1875 17.359375 Z M 10.238281 18.308594 "/><path style=" stroke:none;fill-rule:evenodd;fill:#1f436d;fill-opacity:1;" d="M 8.816406 15.671875 C 8.921875 15.289062 9.511719 15.445312 9.40625 15.828125 L 8.65625 18.613281 C 8.550781 18.996094 7.957031 18.835938 8.0625 18.453125 Z M 8.816406 15.671875 "/><path style=" stroke:none;fill-rule:evenodd;fill:#1f436d;fill-opacity:1;" d="M 7.167969 17.875 C 7.457031 18.148438 7.019531 18.585938 6.730469 18.308594 L 5.78125 17.359375 C 5.664062 17.238281 5.664062 17.042969 5.78125 16.921875 L 6.730469 15.972656 C 7.019531 15.695312 7.457031 16.132812 7.167969 16.410156 L 6.441406 17.132812 Z M 7.167969 17.875 "/><path style=" stroke:none;fill-rule:evenodd;fill:#1f436d;fill-opacity:1;" d="M 5.953125 20.167969 C 5.542969 20.167969 5.542969 19.546875 5.953125 19.546875 L 11.769531 19.546875 C 12.164062 19.546875 12.164062 20.167969 11.769531 20.167969 Z M 5.953125 20.167969 "/><path style=" stroke:none;fill-rule:evenodd;fill:#1f436d;fill-opacity:1;" d="M 5.953125 21.488281 C 5.542969 21.488281 5.542969 20.878906 5.953125 20.878906 L 11.769531 20.878906 C 12.164062 20.878906 12.164062 21.488281 11.769531 21.488281 Z M 5.953125 21.488281 "/></g></svg>